<svg width="150" height="144" viewBox="0 0 150 144" fill="none" xmlns="http://www.w3.org/2000/svg">
<path opacity="0.6" d="M0 54C0 24.1767 24.1766 0 54 0H96C125.823 0 150 24.1766 150 54V89.6321C150 119.455 125.823 143.632 96 143.632H54C24.1766 143.632 0 119.455 0 89.6321V54Z" fill="#FFAF0F"/>
<path fill-rule="evenodd" clip-rule="evenodd" d="M59.3221 22.2461C58.5115 22.7109 58.4559 22.9715 58.4494 26.3218C58.4408 30.781 58.0748 30.4871 63.7367 30.5656L68.0231 30.6252L67.9695 33.7883L67.9158 36.9515L65.6697 37.4576C61.324 38.4365 58.235 39.5658 54.6346 41.4912C52.0459 42.8758 51.2826 43.3633 48.8729 45.1717C41.0445 51.0461 35.2209 59.9482 33.0522 69.3558C32.2221 72.9564 32.0012 75.0713 32 79.432C31.999 82.8523 32.0772 84.0855 32.4207 86.0801C35.7647 105.495 51.1943 119.891 70.7197 121.811C79.3998 122.665 88.9027 120.543 96.3018 116.098C107.439 109.408 114.698 98.8234 116.887 86.0801C117.224 84.1156 117.308 82.8201 117.313 79.5297C117.319 75.208 117.137 73.3984 116.328 69.764C114.168 60.0566 108.421 51.164 100.435 45.1717C98.0256 43.3633 97.2623 42.8758 94.6736 41.4912C91.0732 39.5658 87.9842 38.4365 83.6385 37.4576L81.3924 36.9515L81.3389 33.7896L81.2852 30.6277L84.9857 30.567C89.9668 30.4851 89.6955 30.7302 89.6869 26.3218C89.6805 22.941 89.6242 22.6879 88.7783 22.2373C88.1736 21.9154 59.8842 21.9236 59.3221 22.2461ZM40.9602 37.0099C38.0266 38.0242 35.9193 40.1701 35.1047 42.9728C34.732 44.2549 34.6928 46.4342 35.0207 47.6515C35.2914 48.6574 36.0869 50.257 36.652 50.9326L37.074 51.4373L43.55 45.4648L50.0258 39.4924L49.4983 38.9369C47.666 37.0086 43.6108 36.0933 40.9602 37.0099ZM79.8299 45.1748C87.0949 46.2427 93.6426 49.5711 98.9811 54.9097C104.287 60.2152 107.54 66.5992 108.741 74.0609C109.155 76.6353 109.157 81.6115 108.745 84.3148C106.988 95.8365 99.5523 105.711 89.0096 110.523C84.1789 112.728 79.9848 113.637 74.6541 113.637C68.2248 113.637 62.3166 112.014 56.8807 108.753C52.2357 105.966 47.8236 101.521 45.0297 96.8148C41.7816 91.3426 40.2494 85.6744 40.2522 79.139C40.2559 69.8299 43.7072 61.5295 50.3272 54.9097C58.199 47.0377 68.7717 43.549 79.8299 45.1748ZM74.0682 63.7779V79.2367H89.4979H104.928V77.7912C104.928 74.4666 103.538 69.0154 101.817 65.5935C98.6971 59.3883 93.7295 54.4496 87.6424 51.5013C83.6656 49.5752 80.2553 48.6572 76.2654 48.4392L74.0682 48.3193V63.7779ZM60.9145 51.6998C60.3955 51.9968 59.8822 52.3289 59.7734 52.4377C59.6402 52.5709 60.1354 53.5945 61.2938 55.5806L63.0117 58.5259L63.9012 58.0166C65.4852 57.1097 65.4902 57.3054 63.8047 54.4043C62.9709 52.9693 62.1918 51.6521 62.0733 51.4773C61.8791 51.1908 61.7647 51.2127 60.9145 51.6998ZM49.5 63.0088L48.865 64.1636L51.5945 65.7459C53.0959 66.6162 54.4494 67.3763 54.6027 67.4351C54.7883 67.5062 55.1127 67.1636 55.5742 66.4094C55.9553 65.7863 56.2512 65.2621 56.232 65.2441C56.0857 65.1084 50.3479 61.8539 50.2547 61.8539C50.1889 61.8539 49.8492 62.3736 49.5 63.0088ZM45.3572 78.3578V81.7758H49.9471H54.5369V78.3578V74.9398H49.9471H45.3572V78.3578ZM52.0955 90.6357C50.5916 91.5111 49.2508 92.298 49.116 92.3847C48.7869 92.5963 50.0262 94.9031 50.3953 94.766C51.2027 94.4658 56.0986 91.4736 56.0949 91.2826C56.0926 91.1564 55.8068 90.6012 55.4602 90.0486L54.8299 89.0443L52.0955 90.6357ZM96.7662 90.156C96.4209 90.7842 96.1385 91.3406 96.1385 91.3928C96.1385 91.5221 101.032 94.3314 101.109 94.2461C101.266 94.0703 102.193 92.1197 102.193 91.9648C102.193 91.8683 101.468 91.3705 100.582 90.8584C99.6955 90.3465 98.6158 89.722 98.1822 89.4709L97.3939 89.0142L96.7662 90.156ZM61.2982 101.072C60.3725 102.671 59.615 104.03 59.615 104.093C59.615 104.156 60.1063 104.489 60.7068 104.833C61.6225 105.357 61.8377 105.414 62.0422 105.189C62.3639 104.834 65.2791 99.8066 65.2789 99.6068C65.2787 99.4855 63.7869 98.5346 63.1066 98.2222C63.0379 98.1906 62.224 99.473 61.2982 101.072ZM88.083 98.8312C87.2988 99.265 86.9938 99.5396 87.0693 99.7445C87.2625 100.268 90.3117 105.409 90.4293 105.409C90.5576 105.409 92.6229 104.008 92.6229 103.921C92.6229 103.823 89.4764 98.4805 89.3379 98.343C89.2647 98.2705 88.7 98.4902 88.083 98.8312ZM74.0682 104.334V108.924H76.8025H79.5369V104.334V99.7445H76.8025H74.0682V104.334Z" fill="#F95C19"/>
</svg>
