<svg width="150" height="144" viewBox="0 0 150 144" fill="none" xmlns="http://www.w3.org/2000/svg">
<path opacity="0.6" d="M0 54C0 24.1767 24.1766 0 54 0H96C125.823 0 150 24.1766 150 54V89.6321C150 119.455 125.823 143.632 96 143.632H54C24.1766 143.632 0 119.455 0 89.6321V54Z" fill="#FFAF0F"/>
<path fill-rule="evenodd" clip-rule="evenodd" d="M35.1748 30.304C34.8634 30.471 34.4719 30.8625 34.3048 31.174C34.0144 31.7157 34.0012 32.9155 34.0012 58.97C34.0012 89.167 33.92 86.9816 35.0681 87.6817C35.56 87.9817 36.2353 87.994 52.3415 87.9945L69.103 87.9951L69.7482 87.35L70.3933 86.7048V59.0398V31.3747L70.0464 30.9335C69.273 29.9502 70.2291 30.0004 52.2445 30.0004C36.5783 30.0004 35.7122 30.0159 35.1748 30.304ZM64.5772 46.2855V56.4221H52.2804H39.9835V46.2855V36.1489H52.2804H64.5772V46.2855ZM106.567 50.6304C106.036 50.7032 105.157 50.9623 104.614 51.206L103.626 51.6494L100.761 51.3755C96.7591 50.993 96.5596 51.002 95.9713 51.5902C95.3485 52.2131 95.3342 52.9446 95.9153 54.4652C96.5547 56.1386 97.8634 57.0868 99.5337 57.0868C100.329 57.0868 100.471 57.238 100.471 58.0868C100.471 60.429 102.188 63.0916 104.363 64.1214C105.754 64.7803 106.649 64.9523 108.186 64.8564C111.603 64.6432 114.314 62.0632 114.747 58.6119C115.338 53.9069 111.313 49.9797 106.567 50.6304ZM80.908 63.7372C79.9796 63.9434 79.2982 64.4862 78.7799 65.432C78.4064 66.1143 77.7844 75.1959 78.0466 76.1409C78.2582 76.9032 78.8642 77.5755 79.5852 77.8479C79.8875 77.9622 82.4193 78.0247 86.7397 78.0247H93.4263L94.1771 77.5486C95.4189 76.7611 95.4954 76.464 95.8731 70.9565C96.0552 68.3027 96.1536 65.9299 96.0918 65.6835C95.9432 65.0917 95.1044 64.151 94.5309 63.9331C93.9973 63.7304 81.7325 63.5539 80.908 63.7372ZM45.2658 66.9326L45.218 68.4697L41.9361 68.5147L38.6541 68.5598V66.9776V65.3955H41.9839H45.3135L45.2658 66.9326ZM100.571 66.8974C100.003 67.0675 99.2094 67.7842 98.8699 68.4341C98.7369 68.6889 98.2592 71.228 97.8083 74.0766C97.0528 78.8504 96.9554 79.2893 96.5659 79.6789L96.1433 80.1019L92.2001 80.185C88.7874 80.2569 88.1728 80.3099 87.6305 80.5793C85.8192 81.4794 85.7531 83.6733 87.5079 84.6557C88.191 85.0381 88.4371 85.0636 93.3074 85.2572C96.1049 85.3684 98.4124 85.4691 98.4352 85.4811C98.4579 85.4929 98.4767 85.9635 98.4767 86.527C98.4767 87.4409 98.2367 88.1796 96.2503 93.3817C95.0258 96.5883 93.8652 99.8475 93.6709 100.624C93.4636 101.455 93.1001 104.23 92.7896 107.357L92.2611 112.677L92.6246 113.423C93.1831 114.567 93.9471 114.998 95.4176 114.998C96.4863 114.998 96.6995 114.943 97.3316 114.498C98.5327 113.654 98.7336 113.036 99.2202 108.684C99.88 102.779 99.8111 102.973 102.97 98.1502C104.748 95.4352 105.215 94.8244 105.317 95.076C105.387 95.2486 105.817 96.9602 106.272 98.8795C106.728 100.799 107.296 102.967 107.535 103.699C108.069 105.332 111.48 112.446 112.128 113.276C113.468 114.995 116.554 115.007 117.61 113.298C118.314 112.16 118.189 111.612 116.196 107.11C114.258 102.731 113.874 101.664 113.591 99.8709C113.482 99.1765 113.329 92.7972 113.21 83.9239C113.03 70.5131 112.984 69.0854 112.726 68.6089C112.016 67.2967 111.326 67.1242 105.871 66.8934C101.334 66.7014 101.226 66.7016 100.571 66.8974Z" fill="#F95C19"/>
</svg>
