<svg width="28" height="27" viewBox="0 0 28 27" fill="none" xmlns="http://www.w3.org/2000/svg">
<path d="M13.93 14.625C15.8019 14.625 17.3194 13.114 17.3194 11.25C17.3194 9.38604 15.8019 7.875 13.93 7.875C12.058 7.875 10.5405 9.38604 10.5405 11.25C10.5405 13.114 12.058 14.625 13.93 14.625Z" stroke="#FFAF0F" stroke-width="2" stroke-linecap="round" stroke-linejoin="round"/>
<path d="M13.9301 2.25C11.533 2.25 9.23399 3.19821 7.53893 4.88604C5.84387 6.57387 4.8916 8.86305 4.8916 11.25C4.8916 13.3785 5.34579 14.7712 6.58633 16.3125L13.9301 24.75L21.274 16.3125C22.5145 14.7712 22.9687 13.3785 22.9687 11.25C22.9687 8.86305 22.0164 6.57387 20.3214 4.88604C18.6263 3.19821 16.3273 2.25 13.9301 2.25V2.25Z" stroke="#FFAF0F" stroke-width="2" stroke-linecap="round" stroke-linejoin="round"/>
</svg>
