<svg width="150" height="144" viewBox="0 0 150 144" fill="none" xmlns="http://www.w3.org/2000/svg">
<path opacity="0.6" d="M0 54C0 24.1767 24.1766 0 54 0H96C125.823 0 150 24.1766 150 54V89.6321C150 119.455 125.823 143.632 96 143.632H54C24.1766 143.632 0 119.455 0 89.6321V54Z" fill="#FFAF0F"/>
<path fill-rule="evenodd" clip-rule="evenodd" d="M48.5904 24.2209C48.0677 24.4804 47.5741 24.9532 47.3037 25.4532L47.0871 25.8541L47.0612 51.0262L47.0353 76.1983L47.7628 76.3152C49.1566 76.5394 50.0573 76.7601 51.3466 77.193C56.7035 78.9919 61.1942 83.4971 62.9608 88.8449C63.4015 90.1788 63.4444 90.3284 63.5644 90.9496C63.6228 91.2528 63.7201 91.7489 63.7805 92.0521C63.9529 92.9189 64.0142 95.6878 63.8866 96.8506C63.5163 100.224 62.2788 103.399 60.2994 106.054C60.0033 106.451 59.7169 106.803 59.663 106.837C59.609 106.87 59.5649 106.94 59.5649 106.992C59.5649 107.051 66.6549 107.077 78.4321 107.061L97.2993 107.036V90.2481V73.4606L81.9149 73.4049C73.4535 73.3744 66.3952 73.3135 66.2298 73.2697C66.0645 73.2258 65.5233 72.9958 65.0271 72.7584C64.293 72.407 63.993 72.1897 63.4153 71.5907C62.4264 70.5652 62.0514 69.8847 61.7117 68.4995C61.5115 67.683 61.5115 35.0393 61.7117 34.2228C62.0429 32.8722 62.5122 32.0094 63.3851 31.1466C64.1241 30.416 64.6228 30.0903 65.6134 29.6911L66.4303 29.362L81.8648 29.3119L97.2993 29.2618L97.2927 27.6582C97.2869 26.2612 97.2595 25.9965 97.0798 25.6036C96.8135 25.0215 96.3294 24.5414 95.705 24.2401L95.2072 24L72.0992 24.0109C49.2586 24.0217 48.9867 24.0242 48.5904 24.2209ZM66.8304 33.0234C66.2496 33.2469 65.6568 33.7839 65.3471 34.3669C65.1412 34.7542 65.1306 34.9035 65.1291 37.43L65.1274 40.086L92.5637 40.1112L120 40.1365V37.4763C120 34.9719 119.988 34.7915 119.789 34.3942C119.471 33.7579 118.922 33.2444 118.322 33.0196C117.793 32.8218 117.522 32.8198 92.5599 32.8249C67.8952 32.83 67.3211 32.8344 66.8304 33.0234ZM65.1215 43.8737C65.0941 43.945 65.0843 49.3909 65.0996 55.9758C65.1264 67.5155 65.1343 67.961 65.3176 68.299C65.6642 68.938 65.9726 69.2657 66.505 69.5607L67.0316 69.8525L92.3852 69.8783C115.689 69.9021 117.779 69.8909 118.235 69.7392C118.845 69.5368 119.512 68.9395 119.791 68.3456C119.999 67.9017 120 67.8623 120 55.8222V43.7441H92.5856C70.2633 43.7441 65.1619 43.7682 65.1215 43.8737ZM112.651 50.2673C113.392 50.6257 113.719 51.3705 113.545 52.3003C113.462 52.7423 112.889 53.3274 112.4 53.4693C112.147 53.5425 108.539 53.5665 100.857 53.5459C90.202 53.5174 89.668 53.5074 89.377 53.3311C88.4729 52.7834 88.2472 51.3904 88.9444 50.6609C89.5457 50.0316 88.8412 50.0665 101.051 50.0622C112.172 50.0582 112.221 50.0591 112.651 50.2673ZM112.903 60.1001C113.753 60.7488 113.826 62.1374 113.045 62.8206C112.493 63.303 112.882 63.2878 101.044 63.2878C90.1341 63.2878 89.9229 63.2841 89.5057 63.0871C88.377 62.5539 88.1863 60.8763 89.1702 60.1353C89.3416 60.0063 89.572 59.8783 89.6822 59.851C89.7925 59.8239 94.9826 59.8079 101.216 59.8159L112.549 59.8301L112.903 60.1001ZM43.7797 79.7689C41.8086 79.9766 40.2427 80.4205 38.5731 81.2449C34.4025 83.3039 31.4154 87.0605 30.4179 91.5009C29.7802 94.3394 29.8665 96.6198 30.7172 99.4171C32.2558 104.476 36.5654 108.519 41.675 109.697C43.4072 110.097 46.0176 110.23 47.396 109.989C49.3216 109.652 50.4202 109.302 51.998 108.523C55.8876 106.601 58.8014 103.043 59.9474 98.8172C60.935 95.1759 60.4867 91.2229 58.704 87.8534C56.7757 84.2087 53.5552 81.5312 49.6929 80.3617C48.3491 79.9548 47.5659 79.8267 45.5336 79.6815C45.2304 79.6597 44.4411 79.6991 43.7797 79.7689ZM46.9144 84.0399L46.9421 85.3986L47.9166 85.6272C48.9945 85.88 50.5112 86.5362 50.6094 86.7922C50.6442 86.8826 50.5127 87.3701 50.3174 87.8757C50.122 88.3812 49.8836 89.0105 49.7876 89.2742C49.6916 89.5378 49.5764 89.7761 49.5316 89.8038C49.4869 89.8314 49.1892 89.7236 48.87 89.5641C48.163 89.2109 47.2275 88.9161 46.2661 88.7438C44.9607 88.5098 43.8434 88.9403 43.4764 89.8187C43.2915 90.2614 43.2901 90.5328 43.4708 90.9625C43.7312 91.5817 44.3428 92.0333 45.8205 92.6975C47.6 93.4971 47.7737 93.5826 48.3399 93.9368C50.3406 95.1884 51.1804 96.6563 51.1569 98.8608C51.1328 101.137 49.5352 103.226 47.2751 103.937L46.7414 104.105L46.7137 105.62L46.6862 107.136L45.3068 107.164C44.4687 107.181 43.8493 107.15 43.7282 107.085C43.5448 106.987 43.5291 106.873 43.5291 105.646V104.314L42.8526 104.192C42.4806 104.125 41.8712 103.976 41.4985 103.86C40.7662 103.632 39.4436 102.921 39.2923 102.674C39.168 102.47 40.1933 99.5689 40.3898 99.5689C40.4649 99.5689 40.7009 99.6792 40.9143 99.8138C42.7708 100.986 45.254 101.314 46.4077 100.539C47.2879 99.9481 47.5668 99.0031 47.1283 98.0974C46.771 97.3594 46.0313 96.8541 44.0803 96.016C41.5553 94.9311 40.2114 93.7332 39.7539 92.1596C39.543 91.4338 39.5458 89.9682 39.7597 89.2458C40.2376 87.6309 41.4914 86.4216 43.4038 85.7311L43.7295 85.6134V84.2426C43.7295 83.294 43.7674 82.8337 43.8523 82.7488C43.9407 82.6604 44.3835 82.6337 45.4309 82.6536L46.8866 82.6812L46.9144 84.0399ZM54.9389 110.94C53.4411 111.958 50.4493 113.071 48.3399 113.396C47.9264 113.459 47.4612 113.535 47.306 113.565L47.024 113.619L47.0555 115.99C47.0848 118.197 47.1021 118.389 47.3037 118.762C47.6006 119.311 48.0964 119.762 48.6739 120.008L49.1583 120.215H72.1827H95.2072L95.705 119.975C96.3253 119.676 96.8098 119.197 97.0864 118.611C97.2884 118.183 97.301 117.983 97.3323 114.666C97.3505 112.745 97.3384 111.065 97.3054 110.933L97.2453 110.694H76.2736H55.3018L54.9389 110.94ZM74.6851 114.006C75.8889 114.683 75.8494 116.491 74.6179 117.081C74.2991 117.234 73.9478 117.258 72.0851 117.258H69.9224L69.5524 116.976C68.6734 116.306 68.5012 115.326 69.1115 114.467C69.5601 113.836 69.7171 113.802 72.1294 113.801C74.1521 113.801 74.3487 113.816 74.6851 114.006Z" fill="#F95C19"/>
</svg>
