<svg width="150" height="144" viewBox="0 0 150 144" fill="none" xmlns="http://www.w3.org/2000/svg">
<path opacity="0.6" d="M0 54C0 24.1767 24.1766 0 54 0H96C125.823 0 150 24.1766 150 54V89.6321C150 119.455 125.823 143.632 96 143.632H54C24.1766 143.632 0 119.455 0 89.6321V54Z" fill="#FFAF0F"/>
<path fill-rule="evenodd" clip-rule="evenodd" d="M74.3527 20.3495C74.0736 20.54 73.1064 21.3543 72.2035 22.1591C67.8962 25.9982 63.4836 28.5675 58.146 30.3445C53.7162 31.8194 49.876 32.316 42.9004 32.3162C38.824 32.3164 38.3573 32.3529 37.6189 32.7295C37.0911 32.9988 36.6616 33.4316 36.386 33.9717C35.9657 34.7959 35.9636 34.9247 36.0355 56.1837C36.1147 79.6514 36.071 78.7562 37.4118 84.3392C39.5709 93.3271 44.6854 101.673 52.3646 108.74C56.5776 112.617 60.0962 115.234 67.6039 120.077C72.681 123.352 75.3277 124.87 75.9598 124.869C76.667 124.869 78.8964 123.617 83.7983 120.466C91.5465 115.486 94.9701 112.976 99.1172 109.235C107.08 102.052 112.383 93.5192 114.588 84.3392C115.929 78.7562 115.885 79.6514 115.965 56.1837C116.036 34.9247 116.034 34.7959 115.614 33.9717C115.338 33.4316 114.909 32.9988 114.381 32.7295C113.643 32.3529 113.176 32.3164 109.1 32.3162C102.124 32.316 98.2838 31.8194 93.854 30.3445C88.5164 28.5675 84.1039 25.9982 79.7965 22.1591C78.8936 21.3543 77.9264 20.54 77.6473 20.3495C76.9645 19.8835 75.0355 19.8835 74.3527 20.3495ZM79.6939 44.9287C85.7604 45.7481 91.1073 48.4162 95.5125 52.8214C103.654 60.9624 105.897 72.7655 101.327 83.4085C98.6764 89.5804 93.2465 95.0103 87.0746 97.6607C79.8095 100.781 72.1905 100.781 64.9254 97.6607C58.7535 95.0103 53.3236 89.5804 50.6732 83.4085C46.9095 74.6438 47.7503 64.9337 52.9557 57.0524C54.7593 54.3213 57.9911 51.0897 60.7113 49.2974C66.4007 45.548 73.0141 44.0261 79.6939 44.9287ZM72.5113 51.0988C64.2147 52.5581 57.6283 58.4491 55.3081 66.4852C52.0386 77.8104 58.6987 89.7194 70.1513 93.0258C82.5967 96.6188 95.3845 88.2637 97.3273 75.2702C98.2906 68.8265 95.9443 61.8906 91.1937 57.1402C86.3046 52.2509 79.1376 49.9333 72.5113 51.0988ZM89.7488 63.5338C90.6636 64.048 91.3913 65.2362 91.3913 66.2164C91.3913 66.6422 91.1584 67.2765 90.7991 67.8302C90.0271 69.0194 75.0714 83.8871 74.2146 84.3172C73.3779 84.7373 72.4635 84.7367 71.6289 84.3158C70.7641 83.8793 61.9608 75.1606 61.2001 73.9867C60.489 72.8898 60.4422 71.9678 61.0433 70.8982C61.8471 69.4678 63.5933 68.8865 64.9798 69.5879C65.341 69.7707 67.277 71.5465 69.2822 73.534L72.9281 77.1479L79.5431 70.5512C83.1814 66.9229 86.4815 63.7624 86.8766 63.5276C87.7945 62.9819 88.7709 62.9842 89.7488 63.5338Z" fill="#F95C19"/>
</svg>
