<svg width="150" height="144" viewBox="0 0 150 144" fill="none" xmlns="http://www.w3.org/2000/svg">
<path opacity="0.6" d="M0 54C0 24.1767 24.1766 0 54 0H96C125.823 0 150 24.1766 150 54V89.6321C150 119.455 125.823 143.632 96 143.632H54C24.1766 143.632 0 119.455 0 89.6321V54Z" fill="#FFAF0F"/>
<path fill-rule="evenodd" clip-rule="evenodd" d="M72.9141 22.0453C65.6031 22.6783 61.0789 24.1852 57.141 27.299C52.7883 30.7408 50.0314 36.3949 49.0689 43.8541L48.823 45.7584L47.9291 45.7631C45.8639 45.7738 44.766 46.3273 44.0566 47.7154C43.6229 48.5644 43.6172 48.674 43.6215 56.2002C43.6254 63.1797 43.6561 63.8908 43.9846 64.606C44.7674 66.3109 45.6691 66.6572 49.3238 66.6557C50.858 66.6551 52.4248 66.5682 52.8055 66.4623C53.5908 66.2441 54.625 65.2646 54.9334 64.4469C55.217 63.6945 55.217 48.7207 54.9334 47.9684C54.8193 47.666 54.4539 47.1365 54.1213 46.7916L53.5168 46.1646L53.7486 44.4478C55.115 34.3338 59.5514 29.2465 68.6152 27.3994C74.0965 26.2824 83.0793 26.7078 87.2629 28.2826C94.1094 30.8596 97.2973 35.3193 98.6199 44.1701L98.9227 46.1951L98.3326 46.8068C98.0082 47.1434 97.6494 47.666 97.5354 47.9684C97.2014 48.8545 97.2557 63.765 97.5959 64.5635C97.8945 65.2642 98.5148 65.8818 99.3447 66.3045L99.8965 66.5855L98.5635 67.1949C95.7223 68.4937 91.9234 69.135 85.9438 69.3248L81.8838 69.4537L81.2563 68.86C80.2414 67.8996 79.9561 67.8287 77.1039 67.8287C74.7539 67.8287 74.3445 67.8779 73.7043 68.2377C72.7693 68.7633 72.2955 69.5779 72.2955 70.6607C72.2955 71.7517 72.7703 72.5588 73.7293 73.0978C74.4246 73.4887 74.7043 73.516 77.3967 73.458C80.2361 73.3967 80.3256 73.3818 80.8607 72.8807L81.4102 72.366L85.9023 72.2605C94.867 72.0502 99.7004 70.7875 102.862 67.8305C104.023 66.7435 104.183 66.6568 105.025 66.6568C106.668 66.6568 107.87 65.9439 108.484 64.606C108.813 63.8908 108.843 63.1797 108.847 56.2002C108.852 48.674 108.846 48.5644 108.412 47.7154C107.703 46.3273 106.605 45.7738 104.54 45.7631L103.646 45.7584L103.4 43.8541C102.066 33.5184 97.4852 27.0103 89.4018 23.968C87.7725 23.3545 85.2838 22.7572 82.875 22.4014C81.034 22.1293 74.6008 21.8994 72.9141 22.0453ZM73.1094 29.5533C67.1379 30.0152 63.7174 31.2959 60.8965 34.1262C58.5811 36.4492 57.3932 39.0701 56.6426 43.5123C56.3855 45.0338 56.3902 45.0928 56.8262 45.7584C57.852 47.3246 57.8748 47.5527 57.877 56.1834C57.8789 63.8758 57.8613 64.2654 57.4637 65.3978L57.0484 66.5805L57.5811 67.6439C60.6105 73.6934 66.9641 78.9051 73.2725 80.5158C76.9857 81.4639 81.0287 80.5736 85.3602 77.8543C87.0447 76.7967 89.0977 75.259 89.1158 75.0412C89.1209 74.9799 87.6584 74.9697 85.8658 75.0187C82.8256 75.1019 82.5404 75.1422 81.6178 75.6187C80.659 76.1141 80.5223 76.1295 77.1133 76.1295C73.8094 76.1295 73.5447 76.1019 72.7188 75.673C71.5953 75.0894 70.649 74.1904 70.1152 73.1998C69.5531 72.1568 69.5074 69.2432 70.0377 68.2707C70.6189 67.2047 71.5617 66.2662 72.6035 65.7166C73.5756 65.2035 73.6754 65.192 77.1133 65.192C80.4326 65.192 80.6779 65.2178 81.5078 65.6543C81.9912 65.9084 82.5408 66.2517 82.7291 66.4174C83.0219 66.6748 83.5713 66.7002 86.5377 66.5926C89.8295 66.4732 90.917 66.3617 93.7785 65.851C94.9912 65.6346 95.0111 65.6209 94.8527 65.1182C94.7641 64.8365 94.6914 60.7781 94.6914 56.0996V47.5932L95.3469 46.3021C95.9395 45.1348 95.9889 44.9109 95.8619 43.9685C95.59 41.9478 94.799 39.2814 93.9223 37.4309C91.8596 33.0764 87.635 30.4771 81.4586 29.7625C78.9279 29.4697 75.348 29.3801 73.1094 29.5533ZM59.2422 80.5463C46.2176 87.6435 43.9602 88.9941 42.482 90.5744C40.5836 92.6039 38.6359 96.8344 37.2826 101.868C36.685 104.091 36 107.519 36 108.287C36 110.501 40.1428 114.357 44.9166 116.588C50.4568 119.177 57.4359 120.784 66.5664 121.572C70.0979 121.878 82.3709 121.878 85.9023 121.572C98.0291 120.525 106.738 117.95 112.195 113.797C114.654 111.927 116.463 109.602 116.467 108.309C116.472 106.404 114.561 98.8308 113.398 96.149C111.578 91.9523 110.054 90.1045 106.764 88.1062C101.638 84.9932 89.723 78.5709 89.0729 78.5709C88.8043 78.5709 88.0158 78.9601 87.3209 79.4361C85.3578 80.7803 83.6074 81.6391 81.49 82.2969C79.1975 83.009 79.4521 82.6615 77.6029 87.6041C76.9299 89.4033 76.3139 90.8756 76.2344 90.8756C76.1549 90.8756 75.5389 89.4033 74.8658 87.6041C73.0166 82.6615 73.2713 83.009 70.9787 82.2969C68.8803 81.6449 67.1809 80.8146 65.1338 79.4414C64.4201 78.9627 63.6156 78.5723 63.3459 78.574C63.0762 78.5758 61.2295 79.4633 59.2422 80.5463ZM100.062 98.7857V100.251H93.1289H86.1953V98.7857V97.3209H93.1289H100.062V98.7857Z" fill="#F95C19"/>
</svg>
