<svg width="23" height="22" viewBox="0 0 23 22" fill="none" xmlns="http://www.w3.org/2000/svg">
<path d="M11.4324 0C5.34099 0 0.385254 4.9346 0.385254 11C0.385254 17.0654 5.34099 22 11.4324 22C17.5237 22 22.4795 17.0654 22.4795 11C22.4795 4.9346 17.5237 0 11.4324 0ZM11.4324 19.8C6.55948 19.8 2.59468 15.8521 2.59468 11C2.59468 6.1479 6.55948 2.2 11.4324 2.2C16.3052 2.2 20.2701 6.1479 20.2701 11C20.2701 15.8521 16.3052 19.8 11.4324 19.8Z" fill="#FFAF0F"/>
<path d="M12.5371 5.50024H10.3276V12.1002H16.9559V9.90024H12.5371V5.50024Z" fill="#FFAF0F"/>
</svg>
