<svg width="150" height="144" viewBox="0 0 150 144" fill="none" xmlns="http://www.w3.org/2000/svg">
<path opacity="0.6" d="M0 54C0 24.1767 24.1766 0 54 0H96C125.823 0 150 24.1766 150 54V89.6321C150 119.455 125.823 143.632 96 143.632H54C24.1766 143.632 0 119.455 0 89.6321V54Z" fill="#FFAF0F"/>
<path fill-rule="evenodd" clip-rule="evenodd" d="M73.7383 32.0772C66.2317 32.9777 60.0622 36.7051 55.982 42.8053C52.5405 47.9504 51.2018 54.6562 52.5567 59.9632C54.1857 66.3434 58.6999 75.0344 66.3174 86.4558C69.3013 90.9299 75.7806 99.9652 76.0051 99.9652C76.2286 99.9652 82.8399 90.7393 85.7977 86.2995C94.5066 73.2278 99.2089 63.5688 99.9263 57.2774C100.199 54.8868 99.6584 50.9621 98.6696 48.1545C95.5789 39.3792 87.9244 33.2485 78.6668 32.1337C77.4182 31.9834 74.7738 31.9531 73.7383 32.0772ZM78.4579 48.4125C82.4822 49.6953 84.822 54.0282 83.6919 58.1041C82.8759 61.0466 80.2925 63.3526 77.232 63.8706C72.5833 64.6571 68.0322 60.8127 68.0322 56.0995C68.0322 50.5824 73.2341 46.7471 78.4579 48.4125ZM48.8815 76.8941C42.8201 79.8245 38.4672 83.7599 36.8298 87.7896C34.7867 92.8176 36.5673 98.302 41.6121 102.52C48.4898 108.271 59.6709 111.605 73.2693 111.96C89.4362 112.382 104.565 108.29 111.472 101.626C114.421 98.7807 115.756 96.1376 115.977 92.7036C116.373 86.561 111.667 80.9925 102.747 77.0495L101.271 76.3971L99.9631 78.847C99.2436 80.1944 98.3349 81.811 97.9437 82.4395C97.5526 83.0679 97.2576 83.599 97.2884 83.6198C97.3192 83.6404 98.0277 83.9231 98.863 84.2479C104.485 86.4341 107.949 89.3878 107.961 92.0056C107.98 96.2075 98.9525 101.141 87.78 103.034C75.0139 105.198 60.7019 103.658 51.3828 99.1173C46.6454 96.8092 44.0448 94.2885 44.0456 92.0056C44.0463 89.5923 46.9282 86.9206 52.3279 84.3272C53.6137 83.7097 54.683 83.1918 54.7041 83.1764C54.7252 83.161 54.279 82.3801 53.7126 81.441C53.1463 80.5019 52.2667 78.9069 51.758 77.8967C51.2495 76.8864 50.7811 76.0604 50.7172 76.0612C50.6534 76.0619 49.8273 76.4368 48.8815 76.8941Z" fill="#F95C19"/>
</svg>
