<svg width="23" height="23" viewBox="0 0 23 23" fill="none" xmlns="http://www.w3.org/2000/svg">
<path fill-rule="evenodd" clip-rule="evenodd" d="M10.9124 3.78804C9.9889 3.90532 9.24576 4.25445 8.60571 4.87171C7.19095 6.23609 7.03951 8.44655 8.25383 10.0079C9.42191 11.5099 11.5552 11.9333 13.1945 10.9886C14.6428 10.154 15.3905 8.5331 15.0806 6.8998C14.7949 5.39343 13.579 4.16499 12.0669 3.85503C11.7792 3.79604 11.1409 3.75903 10.9124 3.78804ZM8.1796 11.8236C6.89279 12.0495 5.71237 12.8484 4.97621 13.9916C4.82068 14.2331 4.63281 14.6423 4.63281 14.7395C4.63281 14.9307 5.18573 15.7083 5.70848 16.2525C6.98567 17.5819 8.56019 18.3742 10.3745 18.6005C10.7523 18.6476 11.8055 18.6471 12.177 18.5996C13.6473 18.4116 14.9555 17.8624 16.0872 16.9581C16.4377 16.678 17.129 15.9642 17.4002 15.6022C17.7065 15.1934 17.9478 14.8013 17.9478 14.7123C17.9478 14.626 17.7836 14.2682 17.6423 14.0468C17.146 13.2692 16.4542 12.6369 15.6774 12.2511C15.1106 11.9695 14.4042 11.7739 14.0474 11.7997C13.9228 11.8087 13.8432 11.836 13.727 11.9093C13.3066 12.1746 13.1748 12.2485 12.9406 12.3503C12.3638 12.6012 11.7742 12.7116 11.145 12.6866C10.3415 12.6546 9.66876 12.439 8.99758 11.9983C8.85155 11.9024 8.69607 11.8159 8.65208 11.8061C8.60807 11.7964 8.55245 11.7842 8.52847 11.7792C8.50448 11.7741 8.3475 11.7941 8.1796 11.8236Z" fill="#F95C19"/>
<circle cx="11.2912" cy="11.1752" r="10.2082" stroke="#F95C19" stroke-width="1.77533"/>
</svg>
