<svg width="68" height="65" viewBox="0 0 68 65" fill="none" xmlns="http://www.w3.org/2000/svg">
<path opacity="0.6" d="M0.293945 32.8114C0.293945 15.0871 14.6624 0.718628 32.3867 0.718628H35.2324C52.9568 0.718628 67.3252 15.0871 67.3252 32.8114C67.3252 50.5358 52.9568 64.9042 35.2324 64.9042H32.3867C14.6624 64.9042 0.293945 50.5358 0.293945 32.8114Z" fill="#FFAF0F"/>
<path d="M34.4443 25.7437C35.8588 25.7437 37.2153 26.3087 38.2155 27.3143C39.2157 28.32 39.7776 29.684 39.7776 31.1062C39.7776 31.5803 39.9649 32.0349 40.2983 32.3701C40.6317 32.7054 41.0839 32.8937 41.5554 32.8937C42.0269 32.8937 42.4791 32.7054 42.8125 32.3701C43.1459 32.0349 43.3332 31.5803 43.3332 31.1062C43.3332 28.7358 42.3967 26.4625 40.7297 24.7864C39.0627 23.1103 36.8018 22.1687 34.4443 22.1687C33.9728 22.1687 33.5206 22.357 33.1872 22.6922C32.8538 23.0275 32.6665 23.4821 32.6665 23.9562C32.6665 24.4303 32.8538 24.8849 33.1872 25.2201C33.5206 25.5554 33.9728 25.7437 34.4443 25.7437Z" fill="#F95C19"/>
<path d="M34.4442 18.5937C37.7447 18.5937 40.91 19.912 43.2438 22.2585C45.5776 24.6051 46.8887 27.7877 46.8887 31.1062C46.8887 31.5803 47.076 32.0349 47.4094 32.3701C47.7428 32.7054 48.195 32.8937 48.6665 32.8937C49.138 32.8937 49.5901 32.7054 49.9235 32.3701C50.2569 32.0349 50.4442 31.5803 50.4442 31.1062C50.4442 26.8395 48.7585 22.7476 45.7579 19.7306C42.7574 16.7136 38.6877 15.0187 34.4442 15.0187C33.9727 15.0187 33.5206 15.207 33.1872 15.5422C32.8538 15.8774 32.6665 16.3321 32.6665 16.8062C32.6665 17.2803 32.8538 17.7349 33.1872 18.0701C33.5206 18.4054 33.9727 18.5937 34.4442 18.5937ZM49.9998 39.8828C49.902 39.5958 49.7332 39.3386 49.5093 39.1354C49.2854 38.9321 49.0137 38.7895 48.7198 38.7209L38.0531 36.2721C37.7636 36.206 37.4622 36.214 37.1765 36.2952C36.8908 36.3764 36.6299 36.5282 36.4176 36.7368C36.1687 36.9692 36.1509 36.9871 34.9953 39.2036C31.161 37.4271 28.0887 34.3252 26.3376 30.4627C28.5953 29.3187 28.6131 29.3187 28.8442 29.0506C29.0517 28.837 29.2027 28.5747 29.2835 28.2874C29.3642 28.0002 29.3721 27.6972 29.3065 27.4061L26.8709 16.8062C26.8027 16.5107 26.6609 16.2375 26.4587 16.0124C26.2566 15.7872 26.0007 15.6175 25.7153 15.5192C25.3002 15.3701 24.8714 15.2623 24.4353 15.1974C23.986 15.0927 23.5275 15.0328 23.0665 15.0187C20.8976 15.0187 18.8175 15.885 17.2839 17.427C15.7503 18.969 14.8887 21.0604 14.8887 23.2412C14.8981 30.539 17.7855 37.5353 22.9178 42.6956C28.0501 47.856 35.0083 50.7592 42.2665 50.7687C43.3404 50.7687 44.4038 50.556 45.396 50.1428C46.3881 49.7296 47.2896 49.1239 48.049 48.3604C48.8084 47.5968 49.4108 46.6904 49.8217 45.6928C50.2327 44.6952 50.4442 43.626 50.4442 42.5462C50.4448 42.0912 50.4091 41.6369 50.3376 41.1877C50.2629 40.7437 50.1498 40.3071 49.9998 39.8828Z" fill="#F95C19"/>
</svg>
