<svg width="18" height="18" viewBox="0 0 18 18" fill="none" xmlns="http://www.w3.org/2000/svg">
<path fill-rule="evenodd" clip-rule="evenodd" d="M1.76099 0.0543532C1.13441 0.190306 0.53667 0.657266 0.252634 1.23276C-0.0167765 1.77854 0.000767036 1.27712 0.000134204 8.45533C-0.00046347 15.3558 -0.00559643 15.1433 0.174444 15.6777C0.402509 16.3548 0.857304 16.9723 1.42766 17.3792C1.65334 17.5403 2.10331 17.7639 2.35595 17.8406C2.89326 18.0037 2.75654 18.0004 8.99973 18.0004C15.1493 18.0004 15.0854 18.0018 15.5917 17.858C16.2409 17.6735 16.9505 17.17 17.3528 16.6083C17.5357 16.3529 17.759 15.9111 17.8401 15.644C18.0011 15.1136 17.9999 15.1544 18 10.2486L18 5.60801L16.8756 6.73195L15.7512 7.85593L15.7418 11.3725L15.7324 14.8891L15.6402 15.0855C15.5896 15.1935 15.4881 15.3419 15.4148 15.4153C15.3414 15.4887 15.193 15.5901 15.085 15.6408L14.8886 15.7329H8.99973H3.11089L2.9145 15.6408C2.66485 15.5237 2.4763 15.3352 2.35922 15.0855L2.26711 14.8891L2.25794 8.56959L2.24879 2.25007H6.19576H10.1428L11.2674 1.12503L12.392 0L7.18892 0.00277743C2.89087 0.00509781 1.94672 0.0140629 1.76099 0.0543532ZM14.8886 0.0257703C14.8499 0.0354386 14.7708 0.0753772 14.7128 0.114542C14.5726 0.209151 6.78482 7.98809 6.78482 8.03351C6.78482 8.05299 7.49293 8.77684 8.35836 9.64213L9.93189 11.2154L13.9284 7.21614C17.5162 3.62595 17.9274 3.20318 17.9492 3.08284C17.9899 2.85804 17.9471 2.68285 17.8107 2.51638C17.5979 2.25678 15.3661 0.0904597 15.2651 0.0455287C15.1679 0.00228522 15.0145 -0.0057658 14.8886 0.0257703ZM5.85576 8.79105C5.8064 8.9296 4.75213 13.2022 4.7643 13.2143C4.78511 13.2351 9.21068 12.1244 9.21068 12.0984C9.21068 12.0862 8.45993 11.3256 7.54232 10.4082C6.43736 9.30343 5.86782 8.75729 5.85576 8.79105Z" fill="white"/>
</svg>
