<svg width="68" height="65" viewBox="0 0 68 65" fill="none" xmlns="http://www.w3.org/2000/svg">
<path opacity="0.6" d="M0.581055 32.8114C0.581055 15.0871 14.9495 0.718628 32.6738 0.718628H35.5195C53.2439 0.718628 67.6123 15.0871 67.6123 32.8114C67.6123 50.5358 53.2439 64.9042 35.5195 64.9042H32.6738C14.9495 64.9042 0.581055 50.5358 0.581055 32.8114Z" fill="#FFAF0F"/>
<path d="M46.2222 19.1437H21.3333C19.9188 19.1437 18.5623 19.7087 17.5621 20.7143C16.5619 21.72 16 23.084 16 24.5062V42.3813C16 43.8035 16.5619 45.1675 17.5621 46.1731C18.5623 47.1788 19.9188 47.7438 21.3333 47.7438H46.2222C47.6367 47.7438 48.9933 47.1788 49.9934 46.1731C50.9936 45.1675 51.5555 43.8035 51.5555 42.3813V24.5062C51.5555 23.084 50.9936 21.72 49.9934 20.7143C48.9933 19.7087 47.6367 19.1437 46.2222 19.1437ZM46.2222 22.7187L34.6667 30.7088C34.3964 30.8657 34.0898 30.9483 33.7778 30.9483C33.4657 30.9483 33.1591 30.8657 32.8889 30.7088L21.3333 22.7187H46.2222Z" fill="#F95C19"/>
</svg>
