<svg width="757" height="436" viewBox="0 0 757 436" fill="none" xmlns="http://www.w3.org/2000/svg">
<path d="M23.5515 217.435H105.655V285.587H23.5515V217.435Z" fill="#3F3D56"/>
<path d="M9.39919 217.435H84.5029V285.587H9.39919V217.435Z" fill="#FFD078"/>
<path d="M9.19444 285.859H84.8091V217.163H9.19444V285.859ZM84.2473 285.315H9.65446V217.707H84.2473V285.315Z" fill="#3F3D56"/>
<path d="M35.149 217.435V234.432L39.8492 231.654L43.4767 234.269L47.8194 231.654L51.8047 234.432V217.435H35.149Z" fill="#3F3D56"/>
<path d="M51.8047 250.884H69.1245V251.974H51.8047V250.884Z" fill="#3F3D56"/>
<path d="M51.8047 258.076H69.1245V259.165H51.8047V258.076Z" fill="#3F3D56"/>
<path d="M51.8047 265.267H69.1245V266.356H51.8047V265.267Z" fill="#3F3D56"/>
<path d="M18.6977 249.414H46.7466V268.1H18.6977V249.414Z" fill="#FEFEFE"/>
<path d="M18.4422 268.317H47.002V249.087H18.4422V268.317ZM46.491 267.773H18.9531V249.632H46.491V267.773Z" fill="#3F3D56"/>
<path d="M103.408 298.062H81.49C80.4682 298.062 79.4465 298.553 78.8334 299.424L67.7466 314.297C65.9584 316.694 67.5423 320.181 70.4034 320.181H103.408V298.062Z" fill="#F27B79"/>
<path d="M70.4038 320.453H103.664V297.79H81.4904C80.3664 297.79 79.2937 298.335 78.6295 299.261L67.5426 314.134C66.6741 315.332 66.4698 316.912 67.134 318.274C67.696 319.581 68.9732 320.453 70.4038 320.453ZM103.153 319.908H70.4038C69.1776 319.908 68.1046 319.2 67.5426 318.001C67.0317 316.803 67.134 315.441 67.9004 314.46L78.987 299.588C79.6001 298.771 80.4688 298.335 81.4395 298.335H103.102V319.908H103.153Z" fill="#3F3D56"/>
<path d="M326.727 204.578C326.727 206.594 325.195 208.174 323.355 208.174H312.32C310.429 208.174 308.947 206.539 308.947 204.578C308.947 202.562 310.48 200.982 312.32 200.982H323.355C325.195 200.928 326.727 202.562 326.727 204.578Z" fill="#3F3D56"/>
<path d="M285.087 208.827H298.678V229.365H285.087V208.827Z" fill="#3F3D56"/>
<path d="M320.085 361.148V241.078C320.085 230.891 312.319 222.61 302.765 222.61H252.696C243.142 222.61 235.376 230.891 235.376 241.078V351.669C235.376 361.039 228.275 368.612 219.487 368.612H205.437C196.649 368.612 189.548 361.039 189.548 351.669V303.347C189.548 303.347 189.905 288.747 198.335 286.622H111.787C111.787 286.622 75.8191 317.892 68.2576 368.285V373.841H320.085V361.148Z" fill="#FFD078"/>
<path d="M68.0021 374.114H320.34V241.078C320.34 230.728 312.472 222.338 302.765 222.338H252.696C242.989 222.338 235.121 230.728 235.121 241.078V351.669C235.121 360.876 228.121 368.339 219.487 368.339H205.437C196.802 368.339 189.803 360.876 189.803 351.669V303.347C189.803 303.183 190.212 288.965 198.437 286.894L200.583 286.35H111.736L111.685 286.404C111.583 286.459 102.54 294.412 92.73 308.359C83.6358 321.27 71.9873 342.135 68.1043 368.23L68.0021 374.114ZM319.829 373.569H68.513V368.285C72.3959 342.353 83.9935 321.543 93.0366 308.74C102.386 295.448 111.021 287.657 111.889 286.894H196.802C189.701 290.218 189.343 302.748 189.292 303.347V351.669C189.292 361.148 196.547 368.884 205.437 368.884H219.487C228.377 368.884 235.632 361.148 235.632 351.669V241.078C235.632 231.054 243.295 222.883 252.696 222.883H302.765C312.166 222.883 319.829 231.054 319.829 241.078V373.569Z" fill="#3F3D56"/>
<path d="M285.956 222.556H292.087V343.279H285.956V222.556Z" fill="#3F3D56"/>
<path d="M-0.000289917 283.68H116.896V289.891H-0.000289917V283.68Z" fill="#3F3D56"/>
<path d="M131.355 374.168H212.59V391.983H131.355V374.168Z" fill="#3F3D56"/>
<path d="M102.08 427.067C81.6511 427.067 65.0902 406.993 65.0902 382.231C65.0902 357.469 81.6511 337.396 102.08 337.396C122.509 337.396 139.07 357.469 139.07 382.231C139.07 406.993 122.509 427.067 102.08 427.067Z" fill="#2F2E41"/>
<path d="M95.8477 409.416C82.5576 409.416 71.7838 396.342 71.7838 380.215C71.7838 364.089 82.5576 351.015 95.8477 351.015C109.138 351.015 119.912 364.089 119.912 380.215C119.912 396.342 109.138 409.416 95.8477 409.416Z" fill="#FEFEFE"/>
<path d="M95.8467 409.688C109.284 409.688 120.166 396.45 120.166 380.215C120.166 363.981 109.232 350.743 95.8467 350.743C82.4608 350.743 71.5273 363.981 71.5273 380.215C71.5273 396.45 82.4097 409.688 95.8467 409.688ZM95.8467 351.288C108.977 351.288 119.655 364.253 119.655 380.215C119.655 396.177 108.977 409.143 95.8467 409.143C82.7163 409.143 72.0382 396.177 72.0382 380.215C72.0382 364.253 82.7163 351.288 95.8467 351.288Z" fill="#3F3D56"/>
<path d="M108.568 380.379C108.568 386.862 105.707 392.636 96.562 392.636C91.1974 392.636 89.2049 386.862 89.2049 380.379C89.2049 373.896 91.2485 368.612 96.562 368.612C105.707 368.612 108.568 373.842 108.568 380.379Z" fill="#3F3D56"/>
<path d="M95.9495 392.146C90.5883 392.146 86.2422 386.878 86.2422 380.379C86.2422 373.88 90.5883 368.612 95.9495 368.612C101.311 368.612 105.657 373.88 105.657 380.379C105.657 386.878 101.311 392.146 95.9495 392.146Z" fill="#FEFEFE"/>
<path d="M95.9494 392.364C101.416 392.364 105.912 386.971 105.912 380.324C105.912 373.678 101.467 368.285 95.9494 368.285C90.4315 368.285 85.9866 373.678 85.9866 380.324C85.9866 386.971 90.4826 392.364 95.9494 392.364ZM95.9494 368.884C101.161 368.884 105.401 374.059 105.401 380.379C105.401 386.698 101.161 391.874 95.9494 391.874C90.7381 391.874 86.4975 386.698 86.4975 380.379C86.4975 374.059 90.7381 368.884 95.9494 368.884Z" fill="#3F3D56"/>
<path d="M310.48 427.067C290.051 427.067 273.49 406.993 273.49 382.231C273.49 357.469 290.051 337.396 310.48 337.396C330.909 337.396 347.47 357.469 347.47 382.231C347.47 406.993 330.909 427.067 310.48 427.067Z" fill="#2F2E41"/>
<path d="M304.247 409.416C290.957 409.416 280.183 396.342 280.183 380.215C280.183 364.089 290.957 351.015 304.247 351.015C317.537 351.015 328.311 364.089 328.311 380.215C328.311 396.342 317.537 409.416 304.247 409.416Z" fill="#FEFEFE"/>
<path d="M304.247 409.688C317.683 409.688 328.566 396.45 328.566 380.215C328.566 363.981 317.632 350.743 304.247 350.743C290.861 350.743 279.927 363.981 279.927 380.215C279.927 396.45 290.81 409.688 304.247 409.688ZM304.247 351.288C317.377 351.288 328.055 364.253 328.055 380.215C328.055 396.177 317.377 409.143 304.247 409.143C291.116 409.143 280.438 396.177 280.438 380.215C280.438 364.253 291.116 351.288 304.247 351.288Z" fill="#3F3D56"/>
<path d="M316.969 380.379C316.969 386.862 314.108 392.146 304.962 392.146C299.598 392.146 297.605 386.862 297.605 380.379C297.605 373.896 299.649 368.612 304.962 368.612C314.108 368.612 316.969 373.842 316.969 380.379Z" fill="#3F3D56"/>
<path d="M304.35 392.146C298.989 392.146 294.643 386.878 294.643 380.379C294.643 373.88 298.989 368.612 304.35 368.612C309.712 368.612 314.058 373.88 314.058 380.379C314.058 386.878 309.712 392.146 304.35 392.146Z" fill="#FEFEFE"/>
<path d="M304.349 392.364C309.816 392.364 314.312 386.971 314.312 380.324C314.312 373.678 309.867 368.285 304.349 368.285C298.831 368.285 294.387 373.678 294.387 380.324C294.387 386.971 298.883 392.364 304.349 392.364ZM304.349 368.884C309.561 368.884 313.801 374.059 313.801 380.379C313.801 386.698 309.561 391.874 304.349 391.874C299.138 391.874 294.897 386.698 294.897 380.379C294.897 374.059 299.189 368.884 304.349 368.884Z" fill="#3F3D56"/>
<path d="M34.078 368.448H38.7785C39.3916 363.273 43.5297 359.296 48.5366 359.296H152.967V380.324H48.5366C43.7852 380.324 39.8001 376.729 38.8805 371.935H34.078V368.448Z" fill="#3F3D56"/>
<path d="M52.6246 373.841C52.6246 373.841 46.1361 318.383 106.883 303.292C128.801 297.844 179.126 294.303 167.835 373.841H52.6246Z" fill="#FFD078"/>
<path d="M52.3683 374.114H167.987L168.038 373.896C172.228 344.314 168.294 323.286 156.338 311.519C141.726 297.082 118.991 300.024 106.78 303.074C92.8834 306.507 81.388 312.39 72.5492 320.507C65.4987 326.99 60.1343 334.944 56.6601 344.151C50.7336 359.786 52.2663 373.733 52.3174 373.896L52.3683 374.114ZM167.578 373.569H52.8283C52.6751 371.662 51.7043 358.697 57.1711 344.314C62.5867 330.041 75.6148 311.355 106.882 303.565C118.991 300.568 141.522 297.627 155.981 311.9C167.834 323.558 171.717 344.314 167.578 373.569Z" fill="#3F3D56"/>
<path d="M192.613 289.891H116.437C108.518 289.891 102.08 283.026 102.08 274.582C102.08 265.648 109.233 258.62 117.561 259.328L193.482 265.757C199.357 266.247 203.904 271.477 203.904 277.797C203.904 284.443 198.846 289.891 192.613 289.891Z" fill="#3F3D56"/>
<path d="M270.681 367.686H357.74C357.74 367.686 356.31 354.012 347.675 341.59C328.772 314.624 289.483 318.328 275.586 348.509C273.083 353.848 271.345 360.168 270.681 367.686Z" fill="#FFD078"/>
<path d="M270.374 367.958H357.995L357.943 367.631C357.943 367.468 356.411 353.739 347.828 341.427C338.887 328.625 324.581 321.869 309.56 323.34C294.642 324.811 281.869 334.181 275.278 348.4C272.673 354.12 270.987 360.549 270.374 367.631V367.958ZM357.433 367.413H270.987C271.6 360.549 273.235 354.229 275.789 348.673C282.278 334.617 294.897 325.356 309.663 323.94C324.479 322.469 338.631 329.169 347.47 341.808C355.236 352.976 357.126 365.343 357.433 367.413Z" fill="#3F3D56"/>
<path d="M52.0107 377.437H275.942V370.246H357.637V363.709H275.789C272.468 363.709 269.811 366.596 269.811 370.083V370.9H52.0107V377.437Z" fill="#3F3D56"/>
<path d="M209.115 412.684H224.085V406.147H211.21L182.395 382.721L178.716 387.897L209.115 412.684Z" fill="#3F3D56"/>
<path d="M284.628 215.637H303.276C304.4 215.637 305.524 215.474 306.546 215.201C312.472 213.621 316.866 207.901 316.866 201.091C316.866 197.06 315.334 193.464 312.881 190.85C311.144 188.997 308.998 187.69 306.546 187.036C305.473 186.764 304.4 186.6 303.225 186.6H300.517C291.167 186.6 282.227 191.558 277.373 200.111C277.118 200.547 276.862 201.037 276.607 201.527C273.49 207.956 277.833 215.637 284.628 215.637Z" fill="#FFD078"/>
<path d="M284.628 215.909H303.276C304.4 215.909 305.524 215.746 306.648 215.474C312.83 213.839 317.173 207.956 317.173 201.091C317.173 197.114 315.742 193.41 313.086 190.632C311.297 188.725 309.049 187.363 306.648 186.709C305.524 186.437 304.4 186.273 303.276 186.273H300.568C290.963 186.273 282.022 191.503 277.22 199.947C276.964 200.438 276.709 200.873 276.453 201.364C274.921 204.415 274.972 208.065 276.658 211.061C278.395 214.112 281.358 215.909 284.628 215.909ZM303.276 186.873C304.349 186.873 305.473 187.036 306.495 187.308C308.845 187.908 310.991 189.215 312.728 191.067C315.231 193.737 316.662 197.332 316.662 201.146C316.662 207.738 312.472 213.403 306.546 214.983C305.473 215.256 304.4 215.419 303.327 215.419H284.679C281.562 215.419 278.752 213.73 277.168 210.843C275.585 208.01 275.483 204.578 276.964 201.691C277.22 201.2 277.475 200.765 277.731 200.274C282.431 191.994 291.219 186.873 300.619 186.873H303.276Z" fill="#3F3D56"/>
<path d="M297.197 201.146C297.197 206.921 299.547 212.096 303.277 215.692H303.328C310.838 215.692 316.969 209.209 316.969 201.146C316.969 197.115 315.436 193.519 312.984 190.904C310.532 188.289 307.109 186.655 303.379 186.655H303.328C299.496 190.196 297.197 195.371 297.197 201.146Z" fill="#3F3D56"/>
<path d="M300.925 201.146C300.925 206.703 303.071 211.66 306.545 215.256C312.472 213.676 316.866 207.956 316.866 201.146C316.866 197.115 315.333 193.519 312.881 190.904C311.144 189.052 308.998 187.744 306.545 187.091C303.071 190.577 300.925 195.589 300.925 201.146Z" fill="#FEFEFE"/>
<path d="M306.495 215.528L306.648 215.474C312.83 213.839 317.173 207.956 317.173 201.091C317.173 197.115 315.742 193.41 313.086 190.632C311.297 188.725 309.049 187.363 306.648 186.709L306.495 186.655L306.393 186.764C302.714 190.523 300.67 195.589 300.67 201.037C300.67 206.485 302.714 211.551 306.393 215.31L306.495 215.528ZM306.648 187.363C308.947 188.017 311.042 189.27 312.728 191.067C315.231 193.737 316.662 197.332 316.662 201.146C316.662 207.683 312.575 213.294 306.648 214.929C303.123 211.279 301.181 206.376 301.181 201.146C301.181 195.862 303.123 191.013 306.648 187.363Z" fill="#3F3D56"/>
<path d="M266.286 202.399H276.351V206.812H266.286V202.399Z" fill="#FFD078"/>
<path d="M266.082 207.138H276.658V202.181H266.082V207.138ZM276.096 206.594H266.542V202.726H276.096V206.594Z" fill="#3F3D56"/>
<path d="M280.132 200.928H276.096C274.205 200.928 272.724 202.562 272.724 204.524C272.724 206.539 274.256 208.119 276.096 208.119H280.132C282.022 208.119 283.504 206.485 283.504 204.524C283.504 202.562 282.022 200.928 280.132 200.928Z" fill="#3F3D56"/>
<path d="M268.228 204.578C268.228 206.594 266.695 208.174 264.856 208.174H253.82C251.93 208.174 250.448 206.539 250.448 204.578C250.448 202.562 251.981 200.982 253.82 200.982H264.856C266.695 200.928 268.228 202.562 268.228 204.578Z" fill="#3F3D56"/>
<path d="M85.8837 359.895H135.749V362.946H85.8837V359.895Z" fill="white"/>
<path d="M85.6282 363.218H136.004V359.623H85.6282V363.218ZM135.493 362.673H86.1391V360.167H135.493V362.673Z" fill="black"/>
<path d="M85.8837 351.832H135.749V354.883H85.8837V351.832Z" fill="white"/>
<path d="M85.6282 355.155H136.004V351.56H85.6282V355.155ZM135.493 354.611H86.1391V352.105H135.493V354.611Z" fill="black"/>
<path d="M85.8837 343.824H135.749V346.875H85.8837V343.824Z" fill="white"/>
<path d="M85.6282 347.147H136.004V343.552H85.6282V347.147ZM135.493 346.602H86.1391V344.096H135.493V346.602Z" fill="black"/>
<path d="M161.805 412.63H266.542V413.72H161.805V412.63Z" fill="#3F3D56"/>
<path d="M365.818 435.158H693.712V436H365.818V435.158Z" fill="#3F3D56"/>
<path d="M440.52 435.045H480.47C480.47 435.045 477.949 425.871 460.248 418.333L460.303 416.229L460.467 404.835H441.561L441.232 414.885L440.52 435.045Z" fill="#3F3D56"/>
<path d="M440.191 435.337H480.799L480.689 434.987C480.58 434.636 477.949 425.637 460.468 418.158L460.632 404.601H441.178L440.191 435.337ZM480.087 434.753H440.794L441.781 405.127H460.139L459.974 418.508L460.139 418.567C475.483 425.17 479.374 433 480.087 434.753Z" fill="#3F3D56"/>
<path d="M388.459 435.045H428.409C428.409 435.045 425.888 425.871 408.187 418.333L408.352 416.93L409.886 404.835H390.98L390.103 415.353L388.459 435.045Z" fill="#3F3D56"/>
<path d="M388.13 435.337H428.792L428.683 434.987C428.573 434.636 425.943 425.637 408.461 418.158L410.16 404.542H390.706L388.13 435.337ZM428.025 434.753H388.733L391.199 405.127H409.557L407.858 418.508L408.078 418.567C423.477 425.17 427.313 433 428.025 434.753Z" fill="#3F3D56"/>
<path d="M624.432 435.045H664.382L661.806 413.717L660.765 404.835H641.859L644.105 415.762L644.653 420.67C626.076 426.747 624.432 435.045 624.432 435.045Z" fill="#3F3D56"/>
<path d="M624.103 435.337H664.711L661.039 404.542H641.53L643.887 415.82L644.38 420.436C626.076 426.455 624.213 434.636 624.158 434.987L624.103 435.337ZM664.108 434.753H624.816C625.419 433.117 628.762 426.163 644.763 420.962L644.983 420.904L644.435 415.762L642.243 405.185H660.546L664.108 434.753Z" fill="#3F3D56"/>
<path d="M578.399 435.045H618.349L617.363 414.067L616.924 404.835H598.018L598.511 416.054L598.621 420.027C580.92 427.624 578.399 435.045 578.399 435.045Z" fill="#3F3D56"/>
<path d="M578.015 435.337H618.678L617.198 404.542H597.744L598.292 416.112L598.401 419.911C580.92 427.39 578.289 434.694 578.18 434.987L578.015 435.337ZM618.075 434.753H578.837C579.659 433.117 583.715 426.747 598.73 420.32L598.895 420.261L598.785 416.054L598.292 405.127H616.65L618.075 434.753Z" fill="#3F3D56"/>
<path d="M471.921 16.4234L444.136 9.76192L441.122 21.0397C440.355 20.4554 439.588 20.1048 438.876 20.1048C435.587 20.1048 434.93 24.312 434.93 24.312C433.998 28.8698 436.793 31.6747 438.053 33.6614L428.518 66.2092L452.137 70.1243L454.165 49.3218C474.496 60.2489 471.921 16.4234 471.921 16.4234Z" fill="#FFAC71"/>
<path d="M452.412 70.358L454.439 49.6724C458.44 51.7176 461.892 51.8344 464.632 49.9061C473.729 43.4784 472.304 17.4752 472.25 16.365V16.1312L443.973 9.35287L441.013 20.4553C440.301 19.9294 439.588 19.6957 438.931 19.6957C435.478 19.6957 434.711 24.0782 434.711 24.1367C433.889 28.1102 435.807 30.7397 437.177 32.6681C437.396 32.9602 437.615 33.2524 437.78 33.5446L428.19 66.2676L452.412 70.358ZM453.946 48.7959L451.919 69.7152L428.902 65.8586L438.383 33.5446L438.328 33.4277C438.109 33.1355 437.89 32.7849 437.616 32.4343C436.3 30.5644 434.492 28.0518 435.259 24.3704C435.314 24.1951 435.917 20.3969 438.931 20.3969C439.588 20.3969 440.301 20.6891 441.013 21.2734L441.342 21.5071L444.411 10.1125L471.756 16.6571C471.866 19.2282 472.798 43.5368 464.358 49.4386C461.728 51.3085 458.33 51.1332 454.385 49.0296L453.946 48.7959Z" fill="#3F3D56"/>
<path d="M480.251 3.68486C478.99 3.39269 475.812 3.68486 473.894 5.37944C474.003 5.14571 474.113 4.91198 474.223 4.67825C477.072 -4.43747 465.071 2.34088 458.714 3.68486C457.399 3.97703 454.494 4.38608 454.494 4.38608C435.478 -0.230215 437.397 20.4554 437.397 20.4554C442.384 19.6958 443.863 26.9416 443.863 26.9416C448.96 24.3705 450.549 20.6892 450.713 19.1114C455.645 21.5072 468.304 26.0651 478.771 18.0012C485.95 12.45 483.429 4.32763 480.251 3.68486Z" fill="#2F2E41"/>
<path d="M590.62 90.3425C590.62 90.3425 598.347 74.9744 599.004 67.3195L595.771 50.4905C595.771 50.4905 595.387 34.3627 615.28 38.2778C615.28 38.2778 615.171 30.6814 619.884 28.8699C619.884 28.8699 617.582 33.1356 618.404 37.3429C618.404 37.3429 622.24 27.9934 629.474 32.9019C629.474 32.9019 635.064 36.1742 633.584 42.1345C633.584 42.1345 633.693 48.9128 624.98 49.0297C624.98 49.0297 625.09 57.5026 644.325 69.0141C644.325 69.0141 660.327 77.1949 659.012 95.0173C657.696 112.84 642.79 124.059 642.79 124.059L587.989 124.117L590.62 90.3425Z" fill="#2F2E41"/>
<path d="M621.034 96.8872L618.678 67.4949C618.678 67.4949 622.788 64.9238 621.747 59.8985C621.747 59.8985 620.76 55.8665 616.979 58.9635L616.87 51.8346C616.87 51.8346 603.608 57.1521 595.881 49.1466C595.881 49.1466 590.291 76.9612 602.074 76.9028L599.553 100.276L621.034 96.8872Z" fill="#FFAC71"/>
<path d="M599.278 100.627L621.363 97.1794L619.007 67.6702C619.774 67.1443 623.007 64.5147 622.076 59.84C622.076 59.7816 621.637 58.087 620.322 57.6195C619.445 57.3273 618.459 57.5611 617.308 58.3792L617.198 51.4255L616.815 51.5424C616.705 51.6008 603.662 56.6846 596.1 48.9128L595.771 48.5622L595.661 49.0881C595.497 49.8478 591.935 67.9623 597.086 74.6823C598.292 76.26 599.881 77.0781 601.799 77.1365L599.278 100.627ZM620.76 96.6535L599.936 99.9258L602.457 76.6106H602.128C600.21 76.6106 598.675 75.8509 597.525 74.3316C593.031 68.4298 595.607 52.7695 596.155 49.7309C603.224 56.5093 614.513 53.0032 616.705 52.2436L616.815 59.5478L617.253 59.1972C618.404 58.2623 619.39 57.9117 620.158 58.2038C621.199 58.5544 621.582 60.0153 621.582 60.0153C622.569 64.8069 618.787 67.2027 618.623 67.3196L618.459 67.4364V67.6117L620.76 96.6535Z" fill="#2F2E41"/>
<path d="M441.177 414.944L460.248 416.229L460.413 404.835H441.506L441.177 414.944Z" fill="#3F3D56"/>
<path d="M390.103 415.353L408.352 416.93L409.886 404.835H390.98L390.103 415.353Z" fill="#3F3D56"/>
<path d="M417.339 169.696L418.106 174.137L422.765 201.543L434.821 272.014L435.533 295.271L439.205 411.788H471.099L474.661 272.715L469.619 195.173L467.92 169.696H417.339Z" fill="#CDCBCC"/>
<path d="M438.931 412.08H471.373V411.788L474.935 272.715L468.194 169.404H417.01L434.547 272.072L438.931 412.08ZM470.825 411.496H439.424L435.04 272.014L417.613 169.988H467.592L474.387 272.774L470.825 411.496Z" fill="#3F3D56"/>
<path d="M641.858 404.835L644.16 415.762L661.861 413.717L660.765 404.835H641.858Z" fill="#3F3D56"/>
<path d="M598.018 404.835L598.511 416.112L617.363 414.067L616.924 404.835H598.018Z" fill="#3F3D56"/>
<path d="M384.897 412.372H417.121L435.533 295.271L439.644 269.034L446.658 201.367L449.453 174.137H397.118L397.337 195.641L398.105 266.58L384.897 412.372Z" fill="#CDCBCC"/>
<path d="M384.623 412.665H417.394L417.449 412.431L439.972 269.092L449.836 173.845H396.899L397.885 266.58L384.623 412.665ZM416.901 412.08H385.226L398.378 266.638L397.392 174.429H449.179L439.369 268.975L416.901 412.08Z" fill="#3F3D56"/>
<path d="M582.783 254.893L591.223 411.788H620.377L619.39 312.334L618.788 255.594L623.007 203.003L624.651 182.026L600.21 181.617L586.4 181.324L585.25 204.873L582.783 254.893Z" fill="#3F3D56"/>
<path d="M591.003 412.08H620.651V411.788L619.062 255.594L624.98 181.733L586.181 181.032L582.509 254.893L591.003 412.08ZM620.103 411.496H591.497L583.057 254.893L586.674 181.617L624.377 182.318L618.514 255.594L620.103 411.496Z" fill="#3F3D56"/>
<path d="M397.118 174.137L397.337 195.641C406.434 198.855 414.983 200.724 422.764 201.543C431.697 202.536 439.753 202.244 446.658 201.309C457.015 199.965 464.906 197.16 469.564 195.115L467.92 169.638H417.339L418.106 174.079H397.118V174.137Z" fill="#3F3D56"/>
<path d="M599.882 179.162L600.21 181.616L603.334 205.867L611.609 269.793L619.39 312.333L637.365 410.853L664.053 411.438L651.778 266.696L648.38 191.083L647.777 177.76L599.882 179.162Z" fill="#3F3D56"/>
<path d="M664.382 411.73V411.379L652.106 266.638L648.051 177.409L599.607 178.812L611.335 269.852L637.146 411.146L664.382 411.73ZM647.503 178.052L651.504 266.696L663.779 411.087L637.584 410.503L611.883 269.677L600.21 179.396L647.503 178.052Z" fill="#3F3D56"/>
<path d="M588.701 94.5497L567.439 124.059L537.736 130.253V153.042L572.535 149.536C574.946 149.302 577.193 148.367 579.166 146.907L593.085 136.388L588.701 94.5497Z" fill="#CDCBCC"/>
<path d="M537.463 153.393L572.59 149.828C575.001 149.595 577.358 148.66 579.385 147.14L593.469 136.505L588.975 93.7901L567.329 123.767L537.517 130.019V153.393H537.463ZM592.866 136.272L579.057 146.731C577.139 148.192 574.892 149.069 572.535 149.302L538.011 152.808V130.545L567.603 124.351L567.658 124.293L588.537 95.3678L592.866 136.272Z" fill="#3F3D56"/>
<path d="M453.508 62.6447C453.508 62.6447 449.397 72.9876 430.929 52.5941L399.255 65.0405C394.761 67.1442 391.582 71.5267 390.76 76.6689L385.774 106.704H403.091L395.09 186.992C395.09 186.992 418.435 193.595 436.3 194.004C465.783 194.706 472.304 189.096 472.304 189.096L470.989 160.58L470.77 95.7184C471.099 86.4858 467.482 79.5322 462.331 72.0526L453.508 62.6447Z" fill="#FFD078"/>
<path d="M441.232 194.355C466.276 194.355 472.195 189.505 472.414 189.33L472.523 189.213L471.208 160.522L470.989 95.66C471.318 86.6027 467.811 79.5322 462.495 71.8189L453.398 62.1188L453.234 62.5279C453.179 62.5863 452.412 64.3978 450.11 64.8653C447.096 65.4496 441.397 63.755 431.094 52.3604L430.984 52.2435L430.82 52.3019L399.145 64.7484C394.542 66.9104 391.309 71.3514 390.487 76.6105L385.445 106.996H402.762L394.761 187.226L394.98 187.285C395.199 187.343 418.545 193.888 436.245 194.355C437.944 194.355 439.643 194.355 441.232 194.355ZM471.975 188.921C470.989 189.622 463.262 194.355 436.245 193.712C419.586 193.303 397.83 187.401 395.364 186.759L403.365 106.353H386.103L391.035 76.6689C391.857 71.5852 394.925 67.3195 399.364 65.2743L430.875 52.9447C441.287 64.3978 447.206 66.0924 450.274 65.4496C452.247 65.0406 453.234 63.755 453.617 63.1122L462.166 72.1695C467.537 79.9997 470.825 86.7196 470.496 95.66L470.715 160.522L471.975 188.921Z" fill="#3F3D56"/>
<path d="M472.414 92.7968H559.822V165.372H472.414V92.7968Z" fill="#3F3D56"/>
<path d="M457.344 92.7968H537.298V165.372H457.344V92.7968Z" fill="#FEFEFE"/>
<path d="M457.07 165.664H537.572V92.5046H457.07V165.664ZM537.024 165.08H457.618V93.089H537.024V165.08Z" fill="#3F3D56"/>
<path d="M484.744 92.7968V110.911L489.731 107.99L493.567 110.736L498.17 107.99L502.445 110.911V92.7968H484.744Z" fill="#3F3D56"/>
<path d="M502.39 128.442H520.858V129.61H502.39V128.442Z" fill="#3F3D56"/>
<path d="M502.39 136.096H520.858V137.265H502.39V136.096Z" fill="#3F3D56"/>
<path d="M502.39 143.751H520.858V144.92H502.39V143.751Z" fill="#3F3D56"/>
<path d="M467.208 126.864H497.075V146.731H467.208V126.864Z" fill="#FEFEFE"/>
<path d="M466.934 147.024H497.349V126.572H466.934V147.024ZM496.801 146.439H467.482V127.156H496.801V146.439Z" fill="#3F3D56"/>
<path d="M585.249 204.873C589.853 205.574 596.155 206.159 603.334 205.867C609.362 205.633 616.047 204.815 622.952 203.003C631.337 200.783 640.05 197.043 648.325 191.083L647.722 177.76L599.881 179.162L600.21 181.616L586.4 181.383L585.249 204.873Z" fill="#3F3D56"/>
<path d="M537.463 167.768C537.956 168.644 538.614 169.345 539.381 169.93C540.148 170.514 541.025 170.923 541.957 171.098L546.286 172.15C549.081 172.793 551.93 173.144 554.78 173.144H558.561C559.657 173.144 560.753 172.851 561.685 172.267L565.74 169.871L570.015 169.345L585.907 167.3V154.269L572.536 156.49L566.343 157.542L552.917 153.568C552.917 153.568 550.561 158.769 557.904 161.398L550.78 165.138H538.833C537.573 165.021 536.751 166.599 537.463 167.768Z" fill="#E78D4C"/>
<path d="M554.835 173.377H558.616C559.767 173.377 560.918 173.085 561.904 172.442L565.905 170.105L586.236 167.475V153.86L566.398 157.191L552.807 153.159L552.698 153.393C552.643 153.451 551.821 155.321 552.698 157.425C553.355 159.119 554.89 160.463 557.246 161.398L550.78 164.787H538.888C538.175 164.787 537.518 165.197 537.189 165.839C536.86 166.482 536.86 167.3 537.244 167.943C537.792 168.819 538.45 169.579 539.217 170.163C540.039 170.748 540.915 171.157 541.847 171.391L546.177 172.442C549.081 173.085 551.931 173.377 554.835 173.377ZM585.688 167.008L565.685 169.579L561.63 171.975C560.699 172.501 559.657 172.793 558.616 172.793H554.835C551.985 172.793 549.136 172.442 546.396 171.8L542.066 170.748C541.19 170.514 540.368 170.163 539.6 169.579C538.888 169.053 538.23 168.352 537.737 167.534C537.463 167.066 537.463 166.482 537.682 166.015C537.902 165.547 538.395 165.255 538.888 165.255H550.889L558.671 161.165L558.013 160.931C555.493 160.054 553.849 158.71 553.191 157.074C552.588 155.613 552.917 154.269 553.136 153.743L566.398 157.659L585.688 154.445V167.008Z" fill="#3F3D56"/>
<path d="M483.758 48.1532H537.956V93.1474H483.758V48.1532Z" fill="#3F3D56"/>
<path d="M474.442 48.1532H523.982V93.1474H474.442V48.1532Z" fill="#FFD078"/>
<path d="M474.168 93.4396H524.256V47.861H474.168V93.4396ZM523.708 92.8552H474.716V48.4454H523.708V92.8552Z" fill="#3F3D56"/>
<path d="M491.375 48.1532V59.3725L494.499 57.5611L496.91 59.2556L499.76 57.5611L502.39 59.3725V48.1532H491.375Z" fill="#3F3D56"/>
<path d="M502.335 70.0076H513.789V71.1763H502.335V70.0076Z" fill="#3F3D56"/>
<path d="M502.335 74.7407H513.789V75.9093H502.335V74.7407Z" fill="#3F3D56"/>
<path d="M502.335 79.5323H513.789V80.7009H502.335V79.5323Z" fill="#3F3D56"/>
<path d="M480.524 69.2479H499.047V81.5774H480.524V69.2479Z" fill="#FEFEFE"/>
<path d="M480.25 81.8697H499.321V68.9557H480.25V81.8697ZM498.773 81.2853H480.798V69.5401H498.773V81.2853Z" fill="#3F3D56"/>
<path d="M570.07 169.287L585.962 167.242V154.211L572.591 156.431L570.07 169.287Z" fill="#3F3D56"/>
<path d="M574.892 155.146L584.921 153.101L586.565 100.627C586.674 97.2963 588.099 94.1408 590.511 91.9788L600.758 82.8631C600.758 82.8631 602.731 96.2445 621.856 82.8631L639.557 89.6414C644.544 91.5697 648.325 96.0692 649.531 101.562L660.711 159.47C661.752 164.846 658.025 169.93 652.874 170.105L647.558 170.28L650.134 188.746C650.134 188.746 631.885 197.102 613.143 198.329C591.552 199.79 584.482 194.297 584.756 193.537L585.852 173.903L574.892 174.371V155.146Z" fill="#CDCBCC"/>
<path d="M606.128 198.971C608.266 198.971 610.622 198.913 613.143 198.738C631.72 197.511 650.024 189.213 650.243 189.096L650.462 188.979L650.407 188.745L647.887 170.631L652.928 170.456C655.449 170.339 657.806 169.112 659.395 166.95C660.984 164.846 661.587 162.1 661.039 159.47L649.859 101.562C648.599 95.8938 644.818 91.3943 639.666 89.4076L621.856 82.5708L621.747 82.6292C614.349 87.8299 608.485 89.6413 604.758 87.8883C601.635 86.4274 601.087 82.863 601.087 82.863L601.032 82.3371L590.455 91.8034C587.989 94.0239 586.51 97.2377 586.4 100.685L584.756 152.925L574.727 154.971V174.838L585.688 174.371L584.591 193.654C584.537 193.829 584.592 193.946 584.701 194.121C585.359 195.232 591.113 198.971 606.128 198.971ZM649.805 188.629C647.777 189.505 630.569 196.926 613.088 198.095C592.428 199.497 585.359 194.472 585.03 193.654V193.595L586.126 173.611L575.111 174.078V155.321L585.139 153.276L586.784 100.568C586.893 97.2962 588.318 94.2576 590.62 92.154L600.484 83.3304C600.758 84.4407 601.689 87.0702 604.375 88.2973C608.32 90.1672 614.129 88.4142 621.802 83.0967L639.392 89.8166C644.325 91.6865 647.996 96.0691 649.202 101.562L660.381 159.47C660.875 161.924 660.272 164.495 658.847 166.482C657.367 168.469 655.175 169.638 652.819 169.754L647.174 169.93L649.805 188.629Z" fill="#3F3D56"/>
<path d="M647.512 169.95L647.543 170.534L585.39 174.354L585.359 173.77L647.512 169.95Z" fill="#3F3D56"/>
<path d="M584.701 153.393L631.994 142.992L627.72 117.865L627.172 117.982L631.392 142.524L584.591 152.867L584.701 153.393Z" fill="#3F3D56"/>
<path d="M383.198 143.634C382.705 149.536 386.157 155.029 391.473 156.782L447.479 175.364L452.795 177.351C454.823 178.111 457.015 178.344 459.152 178.052L469.893 176.65C470.551 176.533 471.263 176.358 471.866 176.124L484.415 171.215C486.004 170.573 487.429 169.404 488.361 167.885L488.525 167.592C489.183 166.541 488.471 165.138 487.265 165.138H467.098C472.962 161.165 472.523 157.659 472.523 157.659L460.139 159.47L451.096 160.639L408.406 138.434L413.338 112.197L414.325 106.879H385.938L385.664 109.976L383.198 143.634Z" fill="#FFAC71"/>
<path d="M457.453 178.461C458.056 178.461 458.659 178.403 459.207 178.344L469.948 176.942C470.66 176.825 471.373 176.65 471.975 176.416L484.525 171.507C486.224 170.865 487.594 169.696 488.58 168.06L488.745 167.768C489.128 167.183 489.128 166.424 488.799 165.839C488.471 165.197 487.923 164.846 487.21 164.846H467.975C473.126 161.048 472.798 157.775 472.743 157.6L472.688 157.308L460.029 159.119L451.042 160.23L408.626 138.2L414.599 106.47H385.664L382.705 143.576C382.212 149.653 385.719 155.204 391.199 157.016L447.206 175.598L452.521 177.585C454.22 178.169 455.864 178.461 457.453 178.461ZM487.375 165.43C487.813 165.43 488.251 165.664 488.471 166.132C488.69 166.541 488.69 167.066 488.416 167.476L488.251 167.768C487.32 169.229 486.005 170.339 484.47 170.982L471.921 175.89C471.318 176.124 470.66 176.299 470.003 176.416L459.262 177.818C457.179 178.111 454.987 177.877 453.015 177.117L447.699 175.13L391.692 156.548C386.486 154.795 383.143 149.536 383.582 143.693L386.486 107.113H414.27L408.352 138.551L408.516 138.668L451.261 160.872L460.413 159.704L472.469 157.951C472.414 158.827 471.811 161.691 467.153 164.846L466.386 165.372H487.375V165.43Z" fill="#3F3D56"/>
<path d="M416.944 94.2135L417.477 94.3504L414.457 107.82L413.924 107.683L416.944 94.2135Z" fill="#3F3D56"/>
<path d="M385.883 109.859L413.448 112.138L414.489 106.762H386.102L385.883 109.859Z" fill="#3F3D56"/>
<path d="M533.538 263.393C532.097 263.392 530.671 263.694 529.34 264.282C528.009 264.869 526.8 265.73 525.781 266.816C524.762 267.902 523.954 269.192 523.402 270.611C522.851 272.03 522.567 273.551 522.566 275.087C522.566 271.984 521.411 269.009 519.354 266.815C517.297 264.621 514.507 263.389 511.598 263.389C514.507 263.389 517.297 262.156 519.354 259.963C521.411 257.769 522.566 254.793 522.566 251.691C522.566 254.793 523.722 257.769 525.779 259.963C527.835 262.156 530.625 263.389 533.534 263.389L533.538 263.393Z" fill="#555185"/>
<path d="M562.594 337.318C565.065 337.318 567.068 335.182 567.068 332.546C567.068 329.91 565.065 327.774 562.594 327.774C560.122 327.774 558.119 329.91 558.119 332.546C558.119 335.182 560.122 337.318 562.594 337.318Z" fill="#FFD078"/>
<path d="M378.994 282.945C381.465 282.945 383.468 280.808 383.468 278.173C383.468 275.537 381.465 273.4 378.994 273.4C376.523 273.4 374.52 275.537 374.52 278.173C374.52 280.808 376.523 282.945 378.994 282.945Z" fill="#FFD078"/>
<path d="M531.873 205.121C535.031 205.121 537.59 202.391 537.59 199.024C537.59 195.656 535.031 192.926 531.873 192.926C528.716 192.926 526.156 195.656 526.156 199.024C526.156 202.391 528.716 205.121 531.873 205.121Z" fill="#FFD078"/>
<path d="M218.674 332.244C216.288 332.244 214.001 333.255 212.314 335.053C210.628 336.852 209.68 339.292 209.68 341.836C209.68 339.292 208.733 336.852 207.046 335.053C205.36 333.255 203.072 332.244 200.687 332.244C203.072 332.244 205.36 331.233 207.046 329.435C208.733 327.636 209.68 325.196 209.68 322.652C209.68 325.196 210.628 327.636 212.314 329.435C214.001 331.233 216.288 332.244 218.674 332.244Z" fill="#555185"/>
<path d="M271.26 325.948C272.908 325.948 274.244 324.523 274.244 322.765C274.244 321.007 272.908 319.582 271.26 319.582C269.612 319.582 268.276 321.007 268.276 322.765C268.276 324.523 269.612 325.948 271.26 325.948Z" fill="#FFD078"/>
<path d="M355.725 165.821C354.285 165.821 352.859 166.123 351.528 166.71C350.197 167.298 348.988 168.159 347.969 169.245C346.95 170.331 346.142 171.62 345.59 173.039C345.038 174.458 344.754 175.979 344.754 177.515C344.754 174.413 343.598 171.437 341.541 169.244C339.484 167.05 336.695 165.817 333.786 165.817C336.695 165.817 339.484 164.585 341.541 162.391C343.598 160.197 344.754 157.222 344.754 154.119C344.754 157.222 345.909 160.197 347.966 162.391C350.023 164.585 352.813 165.817 355.722 165.817L355.725 165.821Z" fill="#555185"/>
<path d="M340.54 91.7556L340.548 91.7556L340.556 91.7554C341.983 91.7074 343.404 91.9656 344.737 92.5154C346.069 93.0652 347.287 93.8959 348.317 94.9601C349.347 96.0243 350.167 97.3001 350.728 98.7127C351.289 100.125 351.578 101.645 351.578 103.18C351.578 104.716 351.289 106.236 350.728 107.648C350.167 109.061 349.347 110.337 348.317 111.401C347.287 112.465 346.069 113.296 344.737 113.846C343.404 114.395 341.983 114.654 340.556 114.606L340.548 114.605H340.54L294.955 114.605L294.952 114.605C293.624 114.614 292.312 114.284 291.124 113.641C289.936 112.998 288.906 112.06 288.122 110.902C287.338 109.744 286.823 108.401 286.622 106.984C286.422 105.567 286.541 104.119 286.971 102.762C287.401 101.406 288.127 100.181 289.087 99.189C290.047 98.1971 291.212 97.4668 292.485 97.0559C293.758 96.645 295.103 96.5644 296.41 96.8204C297.717 97.0765 298.95 97.6623 300.007 98.532L300.993 99.3434L300.82 98.0782C300.132 93.0356 301.331 87.9096 304.154 83.8086C306.977 79.7087 311.192 76.9661 315.883 76.1612C320.573 75.3564 325.375 76.5507 329.253 79.494C333.133 82.4384 335.778 86.8988 336.607 91.9169L336.704 92.5015L337.264 92.308C338.323 91.9422 339.428 91.7559 340.54 91.7556Z" fill="white" stroke="black"/>
<path d="M350.64 434.783C352.289 434.783 353.625 433.358 353.625 431.6C353.625 429.843 352.289 428.418 350.64 428.418C348.992 428.418 347.656 429.843 347.656 431.6C347.656 433.358 348.992 434.783 350.64 434.783Z" fill="#FFD078"/>
<path d="M746.5 272.332L746.599 272.91L747.154 272.721C747.882 272.474 748.641 272.35 749.404 272.353C751.298 272.431 753.097 273.287 754.423 274.753C755.752 276.223 756.499 278.191 756.5 280.245C756.501 282.299 755.755 284.267 754.428 285.739C753.104 287.206 751.306 288.064 749.412 288.143H717.329C716.424 288.143 715.531 287.914 714.722 287.471C713.914 287.029 713.213 286.386 712.679 285.592C712.145 284.799 711.794 283.879 711.658 282.908C711.522 281.937 711.605 280.946 711.899 280.017C712.193 279.089 712.689 278.251 713.344 277.572C713.998 276.893 714.793 276.393 715.659 276.11C716.526 275.828 717.442 275.769 718.333 275.939C719.225 276.109 720.068 276.504 720.793 277.093L721.769 277.886L721.604 276.639C721.139 273.134 721.983 269.577 723.948 266.735C725.912 263.893 728.836 261.994 732.087 261.434C735.337 260.875 738.666 261.696 741.362 263.729C744.058 265.762 745.907 268.849 746.5 272.332Z" fill="white" stroke="black"/>
</svg>
