<svg width="586" height="482" viewBox="0 0 586 482" fill="none" xmlns="http://www.w3.org/2000/svg">
<path d="M406 406H322V454H406V406Z" fill="#F18740"/>
<path d="M382.999 127.999L321.879 187.9L493.253 362.763L554.373 302.862L382.999 127.999Z" fill="#FFC676"/>
<path d="M552.9 299.374L508.473 258.39L365.658 413.207L410.086 454.19L552.9 299.374Z" fill="#F18740"/>
<path d="M541.998 267.001L466 267.52L466.276 307.87L542.274 307.351L541.998 267.001Z" fill="#FFC676"/>
<path d="M112 166H63C55.8203 166 50 171.82 50 179C50 186.18 55.8203 192 63 192H112C119.18 192 125 186.18 125 179C125 171.82 119.18 166 112 166Z" fill="#112848"/>
<path d="M106 294H25C17.8203 294 12 299.82 12 307C12 314.18 17.8203 320 25 320H106C113.18 320 119 314.18 119 307C119 299.82 113.18 294 106 294Z" fill="#112848"/>
<path d="M253.5 194L174.5 135.5L162 82L174.5 39.5L185.5 34.5C227.167 76.6667 310.8 161.4 312 163C313.2 164.6 332.167 186 341.5 196.5L356.5 225L351 264L341.5 300.5L300 323.5L245 320L205.5 274.5V251.5L245 258.5L177 219.5V154L253.5 194Z" fill="white"/>
<path d="M202 424H135C127.82 424 122 429.82 122 437C122 444.18 127.82 450 135 450H202C209.18 450 215 444.18 215 437C215 429.82 209.18 424 202 424Z" fill="#112848"/>
<path d="M170.999 8.80008C166.699 10.9001 157.699 22.4001 152.199 32.8001C137.199 61.2001 137.699 93.8001 153.599 125.2C155.399 128.7 155.999 131.3 155.699 133.4C155.399 135.1 154.199 141.9 153.099 148.5C147.399 181.3 153.899 208.4 172.699 230.4L177.699 236.2L178.299 245.9C178.699 251.2 179.599 258.4 180.399 262L181.799 268.5L166.499 284.1C152.499 298 151.122 299.791 149.499 303.5C145.999 311.5 146.499 309 228.799 393.3C271.599 436.1 309.999 471.8 311.499 472.6C316.999 472.6 411.499 472.6 416.799 472.6C420.099 470.8 573.299 317.4 574.899 314.3C576.299 311.5 576.299 305 574.899 301.3C574.399 299.8 557.999 282.5 538.499 263L503.099 227.5L500.899 218C494.899 191 492.299 179.5 484.999 146C477.999 113.6 474.299 96.2 462.899 42C456.799 12.6 458.199 10.2001 450.999 7.00009C445.999 6.00009 444.599 6.80006 438.799 8.60007C423.099 13.3 407.999 26.8872 399.599 44.5001C393.399 57.5001 390.499 63.9 390.599 82.5C390.67 95.7427 390.999 99.4001 393.399 107.3C394.799 112.1 397.599 119.3 399.599 123.1C401.499 127 402.899 130.4 402.699 130.6C402.199 131.1 389.299 117.9 377.399 104.7C370.799 97.4001 367.499 93.5001 364.999 92.0001C361.499 89.5001 355.499 91.0001 353.299 94.5001C348.999 98.1001 343.499 116.3 341.899 130.5L340.699 141H325.499H310.299L285.499 114.7C207.899 32.7001 184.999 9.30007 181.099 8.20007C175.999 6.60007 175.099 6.70008 170.999 8.80008ZM202.999 69.1C262.299 131 316.799 189.4 324.099 199C330.199 207 337.399 221.3 339.699 230C341.999 238.5 341.999 254.2 339.699 263C335.399 279.3 323.099 296.5 311.299 302.7C300.899 308.1 294.099 309.5 277.999 309.5C265.699 309.4 262.399 309.1 255.999 307.1C241.099 302.5 228.299 294.2 220.999 284.6C214.899 276.5 206.999 258 209.699 258C210.099 258 212.999 258.9 215.999 260.1C234.899 267.3 261.899 267.8 278.199 261.3C283.199 259.3 282.999 258 277.599 258C263.599 258 241.999 250.1 224.999 238.7C199.499 221.7 185.999 204.4 181.499 182.9C179.799 175 179.499 163 180.999 163C181.499 163 183.399 164.3 185.199 165.9C196.099 175.4 216.699 186.3 234.999 192.3C246.299 196 265.699 200.4 268.599 199.8C269.699 199.6 265.499 196.4 257.199 191.2C230.899 174.6 206.199 152.9 191.699 133.5C183.799 122.9 174.899 105.6 171.999 95C168.899 83.6 169.199 67.3001 172.599 57.2001C175.499 48.4001 177.599 44.7001 179.299 45.3001C179.999 45.5001 190.599 56.2 202.999 69.1ZM472.699 238.2C510.299 275.8 540.999 307 540.999 307.5C540.999 308.1 510.299 339.2 472.699 376.8L403.999 445H372.699C348.999 445 340.499 445.8 340.499 445C340.499 444.3 370.999 412.6 407.799 375.8C444.499 339 474.599 308.6 474.799 308.2C474.899 307.8 444.399 276.9 406.999 239.5C369.599 202.1 338.999 171.2 338.999 170.8C338.999 170.3 353.699 170 371.699 170H404.499L472.699 238.2Z" fill="#112848"/>
</svg>
