<svg width="308" height="231" viewBox="0 0 308 231" fill="none" xmlns="http://www.w3.org/2000/svg">
<path fill-rule="evenodd" clip-rule="evenodd" d="M168.081 214.98C145.109 211.472 127.015 198.604 108.615 186.733C88.7703 173.931 62.6705 162.931 57.3414 143.539C52.0174 124.165 72.058 108.16 82.2253 90.7047C92.2327 73.5245 95.4339 51.8357 116.23 42.4418C137.169 32.9835 164.282 37.9656 188.613 42.6475C210.975 46.9503 231.695 55.2576 248.628 67.9184C265.415 80.4696 276.176 96.3843 283.337 113.471C291.233 132.313 300.661 152.763 291.637 170.549C282.51 188.539 258.659 198.178 236.277 206.226C215.062 213.855 191.708 218.588 168.081 214.98Z" fill="white" fill-opacity="0.35"/>
<path opacity="0.3" fill-rule="evenodd" clip-rule="evenodd" d="M134.369 211.329C108.594 207.394 88.2921 192.954 67.6467 179.635C45.3809 165.271 16.0964 152.929 10.117 131.17C4.14331 109.433 26.6293 91.4742 38.0372 71.8896C49.2658 52.6129 52.8576 28.2777 76.1911 17.7375C99.6848 7.12504 130.107 12.7151 157.407 17.9683C182.497 22.7962 205.746 32.1171 224.745 46.3228C243.58 60.4055 255.654 78.2622 263.689 97.434C272.548 118.575 283.127 141.52 273.002 161.477C262.761 181.662 235.999 192.477 210.887 201.507C187.082 210.067 160.88 215.377 134.369 211.329Z" fill="white"/>
<path d="M153.762 99.7077V86.0295L146.841 79.5161L142.557 77.2364L137.284 103.616H150.796L153.762 99.7077Z" fill="#FFAC71" stroke="black" stroke-width="0.89375"/>
<mask id="path-4-inside-1_50_286" fill="white">
<path d="M118.762 175.073C117.062 175.399 115.305 175.284 113.662 174.74C112.018 174.195 110.544 173.24 109.38 171.964C106.426 168.652 106.061 163.859 105.842 159.439L105.194 146.365L109.98 150.799C113.422 153.988 116.937 157.273 119.023 161.464C121.11 165.655 121.493 171.012 118.746 174.808"/>
</mask>
<path d="M118.762 175.073C117.062 175.399 115.305 175.284 113.662 174.74C112.018 174.195 110.544 173.24 109.38 171.964C106.426 168.652 106.061 163.859 105.842 159.439L105.194 146.365L109.98 150.799C113.422 153.988 116.937 157.273 119.023 161.464C121.11 165.655 121.493 171.012 118.746 174.808" fill="#E6E6E6"/>
<path d="M109.38 171.964L108.719 172.567L108.712 172.56L109.38 171.964ZM105.842 159.439L104.949 159.485L104.949 159.485L105.842 159.439ZM105.194 146.365L104.301 146.41L104.193 144.217L105.803 145.709L105.194 146.365ZM109.98 150.799L110.588 150.143L110.588 150.143L109.98 150.799ZM118.929 175.95C117.078 176.305 115.167 176.18 113.379 175.588L113.944 173.892C115.443 174.388 117.045 174.493 118.596 174.195L118.929 175.95ZM113.379 175.588C111.591 174.995 109.986 173.955 108.719 172.567L110.041 171.362C111.101 172.524 112.446 173.395 113.944 173.892L113.379 175.588ZM108.712 172.56C105.516 168.976 105.166 163.849 104.949 159.485L106.735 159.393C106.957 163.869 107.336 168.328 110.048 171.369L108.712 172.56ZM104.949 159.485L104.301 146.41L106.087 146.319L106.735 159.393L104.949 159.485ZM105.803 145.709L110.588 150.143L109.372 151.455L104.586 147.02L105.803 145.709ZM110.588 150.143C114.009 153.313 117.653 156.704 119.824 161.065L118.223 161.863C116.221 157.842 112.834 154.662 109.372 151.455L110.588 150.143ZM119.824 161.065C122 165.435 122.479 171.173 119.47 175.331L118.022 174.286C120.507 170.851 120.22 165.875 118.223 161.863L119.824 161.065Z" fill="#222132" mask="url(#path-4-inside-1_50_286)"/>
<path d="M115.661 190.237L115.679 190.284L115.661 190.237ZM115.661 190.237L115.644 190.274" fill="#F2F2F2" stroke="#222132" stroke-width="0.89375"/>
<mask id="path-7-inside-2_50_286" fill="white">
<path d="M111.844 182.702C110.994 183.647 109.914 184.358 108.707 184.768C107.501 185.177 106.208 185.271 104.954 185.04C101.738 184.409 99.3729 181.764 97.2606 179.272L91.0129 171.902L95.8058 172.378C99.2526 172.721 102.786 173.087 105.889 174.617C108.992 176.147 111.621 179.114 111.716 182.555"/>
</mask>
<path d="M111.844 182.702C110.994 183.647 109.914 184.358 108.707 184.768C107.501 185.177 106.208 185.271 104.954 185.04C101.738 184.409 99.3729 181.764 97.2606 179.272L91.0129 171.902L95.8058 172.378C99.2526 172.721 102.786 173.087 105.889 174.617C108.992 176.147 111.621 179.114 111.716 182.555" fill="#E6E6E6"/>
<path d="M104.954 185.04L104.791 185.918L104.781 185.916L104.954 185.04ZM97.2606 179.272L96.5781 179.85L96.5781 179.85L97.2606 179.272ZM91.0129 171.902L90.3304 172.481L88.901 170.794L91.1029 171.013L91.0129 171.902ZM95.8058 172.378L95.7158 173.267L95.7158 173.267L95.8058 172.378ZM112.509 183.299C111.556 184.358 110.345 185.155 108.993 185.614L108.421 183.922C109.483 183.561 110.433 182.936 111.18 182.106L112.509 183.299ZM108.993 185.614C107.642 186.072 106.194 186.177 104.791 185.918L105.118 184.161C106.222 184.364 107.359 184.282 108.421 183.922L108.993 185.614ZM104.781 185.916C101.209 185.216 98.6546 182.3 96.5781 179.85L97.9431 178.694C100.091 181.228 102.266 183.602 105.128 184.163L104.781 185.916ZM96.5781 179.85L90.3304 172.481L91.6954 171.324L97.9431 178.694L96.5781 179.85ZM91.1029 171.013L95.8958 171.489L95.7158 173.267L90.9229 172.791L91.1029 171.013ZM95.8958 171.489C99.3151 171.829 103.014 172.202 106.286 173.815L105.492 175.418C102.559 173.972 99.1901 173.612 95.7158 173.267L95.8958 171.489ZM106.286 173.815C109.566 175.433 112.502 178.643 112.61 182.529L110.822 182.581C110.74 179.586 108.418 176.861 105.492 175.418L106.286 173.815Z" fill="#222132" mask="url(#path-7-inside-2_50_286)"/>
<mask id="path-9-inside-3_50_286" fill="white">
<path d="M117.197 192.85C115.283 187.9 113.029 182.381 107.889 179.965C106.46 179.295 104.915 178.902 103.337 178.808C102.84 178.778 102.85 179.548 103.346 179.578C105.989 179.748 108.492 180.818 110.434 182.607C112.304 184.321 113.632 186.516 114.692 188.793C115.342 190.187 115.896 191.623 116.451 193.056C116.628 193.515 117.377 193.313 117.197 192.85L117.197 192.85Z"/>
</mask>
<path d="M117.197 192.85C115.283 187.9 113.029 182.381 107.889 179.965C106.46 179.295 104.915 178.902 103.337 178.808C102.84 178.778 102.85 179.548 103.346 179.578C105.989 179.748 108.492 180.818 110.434 182.607C112.304 184.321 113.632 186.516 114.692 188.793C115.342 190.187 115.896 191.623 116.451 193.056C116.628 193.515 117.377 193.313 117.197 192.85L117.197 192.85Z" fill="#F2F2F2"/>
<path d="M117.197 192.85L118.081 192.98L117.582 196.323L116.363 193.173L117.197 192.85ZM107.889 179.965L108.27 179.156L108.271 179.156L107.889 179.965ZM103.337 178.808L103.282 179.7L103.281 179.7L103.337 178.808ZM103.346 179.578L103.402 178.686L103.405 178.687L103.346 179.578ZM110.434 182.607L109.829 183.266L109.828 183.264L110.434 182.607ZM114.692 188.793L115.503 188.414L115.503 188.414L114.692 188.793ZM116.451 193.056L117.285 192.733L117.285 192.733L116.451 193.056ZM117.197 192.85L116.313 192.719L116.813 189.376L118.031 192.526L117.197 192.85ZM116.363 193.173C114.424 188.16 112.274 183.014 107.508 180.774L108.271 179.156C113.785 181.748 116.142 187.641 118.031 192.526L116.363 193.173ZM107.508 180.774C106.181 180.152 104.747 179.787 103.282 179.7L103.392 177.916C105.082 178.017 106.738 178.438 108.27 179.156L107.508 180.774ZM103.281 179.7C103.409 179.708 103.59 179.658 103.725 179.507C103.84 179.378 103.864 179.242 103.863 179.158C103.862 179.071 103.834 178.967 103.754 178.87C103.662 178.759 103.528 178.694 103.402 178.686L103.29 180.47C102.467 180.42 102.082 179.727 102.075 179.183C102.072 178.906 102.156 178.582 102.393 178.317C102.651 178.029 103.017 177.894 103.393 177.917L103.281 179.7ZM103.405 178.687C106.252 178.87 108.948 180.021 111.041 181.949L109.828 183.264C108.036 181.614 105.726 180.627 103.287 180.47L103.405 178.687ZM111.039 181.948C113.031 183.773 114.418 186.086 115.503 188.414L113.882 189.171C112.845 186.946 111.578 184.868 109.829 183.266L111.039 181.948ZM115.503 188.414C116.168 189.841 116.732 191.304 117.285 192.733L115.617 193.38C115.06 191.941 114.517 190.534 113.882 189.171L115.503 188.414ZM117.285 192.733C117.238 192.612 117.136 192.509 117.012 192.457C116.905 192.413 116.804 192.415 116.724 192.437C116.646 192.458 116.517 192.518 116.422 192.672C116.308 192.855 116.316 193.052 116.363 193.173L118.031 192.526C118.168 192.879 118.15 193.275 117.941 193.612C117.75 193.919 117.456 194.088 117.192 194.161C116.681 194.3 115.911 194.141 115.617 193.38L117.285 192.733ZM118.081 192.98L118.081 192.98L116.313 192.719L116.313 192.719L118.081 192.98Z" fill="#222132" mask="url(#path-9-inside-3_50_286)"/>
<mask id="path-11-inside-4_50_286" fill="white">
<path d="M186 170.219C189.02 171.802 192.399 172.586 195.811 172.495C199.224 172.403 202.556 171.44 205.485 169.698C212.965 165.133 216.416 156.303 219.378 148.092C222.298 139.996 225.218 131.901 228.138 123.805L216.557 129.443C208.228 133.498 199.705 137.692 193.354 144.408C187.003 151.124 183.192 161.008 186.184 169.73"/>
</mask>
<path d="M186 170.219C189.02 171.802 192.399 172.586 195.811 172.495C199.224 172.403 202.556 171.44 205.485 169.698C212.965 165.133 216.416 156.303 219.378 148.092C222.298 139.996 225.218 131.901 228.138 123.805L216.557 129.443C208.228 133.498 199.705 137.692 193.354 144.408C187.003 151.124 183.192 161.008 186.184 169.73" fill="#E6E6E6"/>
<path d="M205.485 169.698L205.95 170.461L205.941 170.466L205.485 169.698ZM219.378 148.092L218.537 147.79L218.537 147.79L219.378 148.092ZM228.138 123.805L227.747 123.002L229.724 122.04L228.979 124.107L228.138 123.805ZM216.557 129.443L216.166 128.64L216.166 128.64L216.557 129.443ZM186.417 169.428C189.301 170.94 192.529 171.689 195.789 171.602L195.834 173.388C192.268 173.483 188.739 172.665 185.584 171.011L186.417 169.428ZM195.789 171.602C199.049 171.514 202.232 170.594 205.029 168.931L205.941 170.466C202.88 172.286 199.399 173.293 195.834 173.388L195.789 171.602ZM205.02 168.936C212.189 164.561 215.557 156.054 218.537 147.79L220.219 148.394C217.276 156.552 213.741 165.706 205.95 170.461L205.02 168.936ZM218.537 147.79C221.457 139.695 224.377 131.599 227.297 123.504L228.979 124.107C226.059 132.203 223.139 140.298 220.219 148.394L218.537 147.79ZM228.528 124.609L216.947 130.246L216.166 128.64L227.747 123.002L228.528 124.609ZM216.947 130.246C208.593 134.313 200.223 138.444 194.003 145.021L192.705 143.795C199.186 136.941 207.863 132.682 216.166 128.64L216.947 130.246ZM194.003 145.021C187.79 151.591 184.182 161.139 187.029 169.439L185.338 170.022C182.201 160.877 186.216 150.656 192.705 143.795L194.003 145.021Z" fill="#222132" mask="url(#path-11-inside-4_50_286)"/>
<path d="M203.938 153.236L203.938 153.236C200.528 154.728 197.407 156.799 194.715 159.356C189.647 164.177 186.551 170.528 184.87 177.28C182.991 184.83 182.904 192.67 182.817 200.473L182.816 200.619C182.831 200.691 182.872 200.757 182.932 200.804C182.996 200.854 183.078 200.878 183.16 200.871C183.243 200.855 183.317 200.811 183.368 200.745C183.421 200.678 183.447 200.593 183.439 200.508L183.437 200.486L183.437 200.464C183.485 196.143 183.539 191.799 183.904 187.47C184.51 180.309 186.024 173.052 189.695 166.712L189.695 166.712C193.018 161.003 198.079 156.491 204.148 153.826L204.148 153.826C204.257 153.778 204.3 153.714 204.319 153.656C204.342 153.586 204.34 153.494 204.303 153.402C204.266 153.311 204.207 153.251 204.154 153.225C204.113 153.204 204.048 153.188 203.938 153.236Z" fill="#F2F2F2" stroke="#222132" stroke-width="0.89375"/>
<mask id="path-14-inside-5_50_286" fill="white">
<path d="M194.647 188.545C195.705 190.81 197.332 192.766 199.372 194.225C201.411 195.684 203.795 196.596 206.292 196.874C212.722 197.515 218.706 193.873 224.126 190.377L240.156 180.035L230.844 178.205C224.146 176.889 217.272 175.568 210.539 176.687C203.805 177.806 197.136 181.905 194.974 188.34"/>
</mask>
<path d="M194.647 188.545C195.705 190.81 197.332 192.766 199.372 194.225C201.411 195.684 203.795 196.596 206.292 196.874C212.722 197.515 218.706 193.873 224.126 190.377L240.156 180.035L230.844 178.205C224.146 176.889 217.272 175.568 210.539 176.687C203.805 177.806 197.136 181.905 194.974 188.34" fill="#E6E6E6"/>
<path d="M206.292 196.874L206.202 197.763L206.192 197.762L206.292 196.874ZM224.126 190.377L224.61 191.127L224.61 191.127L224.126 190.377ZM240.156 180.035L240.33 179.159L242.501 179.585L240.64 180.786L240.156 180.035ZM230.844 178.205L230.67 179.082L230.67 179.082L230.844 178.205ZM195.457 188.166C196.45 190.292 197.977 192.128 199.893 193.498L198.85 194.952C196.686 193.404 194.96 191.328 193.837 188.924L195.457 188.166ZM199.893 193.498C201.808 194.868 204.047 195.725 206.393 195.986L206.192 197.762C203.543 197.467 201.014 196.5 198.85 194.952L199.893 193.498ZM206.382 195.985C212.452 196.59 218.176 193.153 223.642 189.626L224.61 191.127C219.237 194.594 212.991 198.44 206.202 197.763L206.382 195.985ZM223.642 189.626L239.673 179.285L240.64 180.786L224.61 191.127L223.642 189.626ZM239.982 180.912L230.67 179.082L231.018 177.328L240.33 179.159L239.982 180.912ZM230.67 179.082C223.945 177.76 217.231 176.481 210.684 177.568L210.393 175.806C217.313 174.656 224.348 176.017 231.018 177.328L230.67 179.082ZM210.684 177.568C204.145 178.655 197.842 182.611 195.821 188.623L194.126 188.057C196.431 181.2 203.465 176.957 210.393 175.806L210.684 177.568Z" fill="#222132" mask="url(#path-14-inside-5_50_286)"/>
<path d="M212.831 186.478L212.831 186.478L212.83 186.478C209.856 185.77 206.773 185.633 203.747 186.076C192.866 187.677 185.538 196.638 179.053 204.908C178.981 205.001 178.989 205.054 178.996 205.078C179.006 205.12 179.046 205.183 179.132 205.238C179.313 205.351 179.515 205.33 179.638 205.173L179.697 205.098C181.548 202.736 183.412 200.359 185.432 198.11C188.764 194.399 192.578 190.968 197.167 188.764C201.953 186.452 207.395 185.848 212.575 187.055L212.575 187.055L212.577 187.055C212.693 187.083 212.775 187.059 212.836 187.018C212.905 186.973 212.964 186.894 212.994 186.801C213.024 186.706 213.014 186.629 212.994 186.585C212.98 186.554 212.947 186.506 212.831 186.478Z" fill="#F2F2F2" stroke="#222132" stroke-width="0.89375"/>
<path d="M247.019 61.4701L289.579 45.4284L290.133 45.2202C290.414 45.1136 290.72 45.0881 291.016 45.1467C291.311 45.2053 291.584 45.3456 291.803 45.5515C292.022 45.7573 292.178 46.0204 292.253 46.3104C292.328 46.6003 292.319 46.9055 292.227 47.1907L280.125 85.0637C280.046 85.3072 279.91 85.5283 279.727 85.7085C279.545 85.8887 279.321 86.0226 279.076 86.0991C278.83 86.176 278.568 86.1922 278.314 86.1462C278.06 86.1002 277.821 85.9935 277.618 85.8352L263.551 74.9468C263.45 74.867 263.334 74.8088 263.21 74.7758C263.086 74.7427 262.956 74.7356 262.829 74.7548C262.656 74.7783 262.493 74.8482 262.356 74.9569C262.22 75.0657 262.116 75.2092 262.056 75.3721L260.266 80.313C260.153 80.6414 259.934 80.923 259.642 81.113C259.35 81.303 259.002 81.3905 258.654 81.3615L258.642 81.3607C258.291 81.3402 257.957 81.2032 257.695 80.9716C257.432 80.74 257.255 80.4273 257.192 80.0838L255.09 69.6153C255.064 69.4846 255.011 69.3606 254.935 69.2511C254.855 69.1433 254.754 69.0521 254.639 68.9825L246.77 64.3251C246.512 64.172 246.302 63.9497 246.164 63.6834C246.027 63.4172 245.968 63.118 245.994 62.82C246.02 62.522 246.13 62.2373 246.311 61.9985C246.493 61.7598 246.738 61.5766 247.019 61.4701L247.019 61.4701ZM247.096 63.7797L254.965 68.4371C255.067 68.4964 255.162 68.5669 255.249 68.6474L289.802 46.3549C289.832 46.3348 289.865 46.3178 289.898 46.304C290.036 46.2459 290.189 46.2373 290.333 46.2798C290.476 46.3223 290.6 46.4132 290.682 46.5367C290.765 46.6603 290.802 46.8087 290.787 46.9564C290.771 47.1041 290.704 47.2417 290.597 47.3455L263.483 74.1933C263.65 74.25 263.806 74.3349 263.944 74.4442L278.012 85.3326C278.134 85.4269 278.277 85.4905 278.429 85.518C278.581 85.5455 278.738 85.5361 278.885 85.4907C279.033 85.4453 279.167 85.3651 279.277 85.257C279.387 85.1489 279.469 85.016 279.516 84.8697L291.618 46.9968C291.672 46.8258 291.677 46.6432 291.631 46.4698C291.586 46.2964 291.492 46.1392 291.361 46.0161C291.23 45.893 291.067 45.809 290.89 45.7735C290.713 45.7381 290.53 45.7527 290.361 45.8157L289.795 46.0293L247.248 62.0656C247.079 62.1294 246.932 62.2392 246.823 62.3824C246.714 62.5256 246.648 62.6964 246.632 62.8752C246.616 63.0541 246.651 63.2338 246.733 63.3937C246.815 63.5537 246.941 63.6875 247.096 63.7797L247.096 63.7797Z" fill="#CCCCCC"/>
<path d="M247.019 61.4701L289.579 45.4284L290.133 45.2202C290.414 45.1136 290.72 45.0881 291.016 45.1467C291.311 45.2053 291.584 45.3456 291.803 45.5515C292.022 45.7573 292.178 46.0204 292.253 46.3104C292.328 46.6003 292.319 46.9055 292.227 47.1907L280.125 85.0637C280.046 85.3072 279.91 85.5283 279.727 85.7085C279.545 85.8887 279.321 86.0226 279.076 86.0991C278.83 86.176 278.568 86.1922 278.314 86.1462C278.06 86.1002 277.821 85.9935 277.618 85.8352L263.551 74.9468C263.45 74.867 263.334 74.8088 263.21 74.7758C263.086 74.7427 262.956 74.7356 262.829 74.7548C262.656 74.7783 262.493 74.8482 262.356 74.9569C262.22 75.0657 262.116 75.2092 262.056 75.3721L260.266 80.313C260.153 80.6414 259.934 80.923 259.642 81.113C259.35 81.303 259.002 81.3905 258.654 81.3615L258.642 81.3607C258.291 81.3402 257.957 81.2032 257.695 80.9716C257.432 80.74 257.255 80.4273 257.192 80.0838L255.09 69.6153C255.064 69.4846 255.011 69.3606 254.935 69.2511C254.855 69.1433 254.754 69.0521 254.639 68.9825L246.77 64.3251C246.512 64.172 246.302 63.9497 246.164 63.6834C246.027 63.4172 245.968 63.118 245.994 62.82C246.02 62.522 246.13 62.2373 246.311 61.9985C246.493 61.7598 246.738 61.5766 247.019 61.4701L247.019 61.4701ZM247.096 63.7797L254.965 68.4371C255.067 68.4964 255.162 68.5669 255.249 68.6474C255.326 68.7189 255.396 68.7984 255.457 68.8846C255.52 68.9726 255.574 69.067 255.617 69.1663L255.617 69.1695C255.663 69.2728 255.696 69.3809 255.717 69.4917L257.82 79.9603C257.856 80.167 257.961 80.3554 258.119 80.4946C258.277 80.6338 258.477 80.7156 258.688 80.7263L258.695 80.7268C258.904 80.7462 259.113 80.6949 259.289 80.5812C259.465 80.4675 259.597 80.2981 259.664 80.1004L261.455 75.1563C261.547 74.9019 261.703 74.6753 261.908 74.4977C262.113 74.3202 262.361 74.1977 262.627 74.1419L262.63 74.1422C262.666 74.135 262.702 74.1279 262.737 74.1239C262.988 74.0863 263.244 74.1102 263.483 74.1933C263.65 74.25 263.806 74.3348 263.944 74.4442L278.012 85.3326C278.134 85.4269 278.277 85.4905 278.429 85.518C278.581 85.5455 278.738 85.5361 278.885 85.4907C279.033 85.4453 279.167 85.3651 279.277 85.257C279.387 85.1488 279.469 85.016 279.516 84.8697L291.618 46.9968C291.672 46.8258 291.677 46.6432 291.631 46.4698C291.586 46.2964 291.492 46.1392 291.361 46.0161C291.23 45.893 291.067 45.809 290.89 45.7735C290.713 45.7381 290.53 45.7527 290.361 45.8157L289.795 46.0293L247.248 62.0656C247.079 62.1294 246.932 62.2392 246.823 62.3824C246.714 62.5256 246.648 62.6964 246.632 62.8752C246.616 63.0541 246.651 63.2338 246.733 63.3937C246.815 63.5537 246.941 63.6875 247.096 63.7797L247.096 63.7797Z" fill="#3F3D56"/>
<path d="M255.118 68.7308L255.467 69.2643L255.618 69.1692L255.618 69.166L290.144 46.894L262.631 74.1419L262.627 74.1417L262.555 74.2165L263.005 74.6675L263.484 74.193L290.597 47.3453C290.704 47.2415 290.771 47.1039 290.787 46.9562C290.803 46.8085 290.766 46.66 290.683 46.5365C290.6 46.4129 290.476 46.322 290.333 46.2795C290.19 46.2371 290.036 46.2456 289.899 46.3038C289.865 46.3175 289.833 46.3346 289.802 46.3546L255.249 68.6471L255.118 68.7308Z" fill="#3F3D56"/>
<path d="M135.339 143.077L139.16 128.171L125.345 126.132L122.314 138.963L122.314 138.963L121.352 143.039L121.352 143.039L110.376 189.511L110.334 189.691L110.176 189.789C108.547 190.798 107.297 192.308 106.613 194.083C109.876 196.319 113.292 198.328 116.835 200.095L116.836 200.096C118.496 200.928 120.189 201.704 121.914 202.424C122.723 201.342 123.27 200.087 123.511 198.758C123.771 197.319 123.664 195.839 123.199 194.452C123.046 194.001 122.856 193.563 122.63 193.144L122.547 192.99L122.59 192.821L124.454 185.554L124.455 185.548L124.46 185.526L134.089 147.956L134.089 147.956L135.259 143.395L135.259 143.393L135.339 143.079L135.339 143.077Z" fill="#FFAC71" stroke="#222132" stroke-width="0.89375"/>
<path d="M144.537 53.3039C136.821 58.9874 135.203 69.8106 140.924 77.4783C143.843 81.3913 147.134 84.7228 150.635 86.3661C152.378 87.1844 154.164 87.5796 155.98 87.4288C157.795 87.2781 159.67 86.5798 161.591 85.1647C165.451 82.3213 168.714 77.1579 170.28 71.7169C171.848 66.2666 171.68 60.6675 168.866 56.895C163.145 49.2273 152.252 47.6204 144.537 53.3039Z" fill="#FFAC71" stroke="#222132" stroke-width="0.89375"/>
<path d="M142.125 166.989L142.154 167.435L142.125 166.989L174.193 164.832C174.921 164.782 175.612 164.502 176.167 164.034C176.722 163.567 177.112 162.935 177.279 162.232C177.279 162.232 177.28 162.232 177.28 162.231L177.305 162.122C178.853 154.377 179.731 146.515 179.928 138.621C179.976 136.421 179.967 134.156 179.883 131.848L179.883 131.847C179.749 127.963 179.373 124.091 178.757 120.253C178.716 120.009 178.676 119.772 178.63 119.538L178.629 119.535C177.911 115.774 176.318 112.233 173.976 109.193C170.001 104.07 164.192 100.664 157.756 99.6853C157.112 99.5903 156.469 99.5207 155.818 99.4783L155.817 99.4782C151.71 99.1972 147.597 99.921 143.837 101.586C140.078 103.251 136.787 105.807 134.253 109.028C133.61 109.846 133.021 110.702 132.487 111.594C129.867 115.972 128.661 121.045 129.034 126.125L129.034 126.126C129.172 128.05 129.537 129.951 130.122 131.79L130.122 131.79C131.34 135.623 132.431 139.18 133.394 142.46L133.395 142.464C133.451 142.661 133.508 142.857 133.565 143.053C133.595 143.154 133.624 143.254 133.653 143.355C134.118 144.957 134.552 146.488 134.952 147.948C136.725 154.398 137.882 159.508 138.405 163.226L138.414 163.29L138.414 163.292C138.451 163.545 138.483 163.79 138.511 164.029C138.602 164.761 138.931 165.445 139.45 165.974C139.97 166.504 140.65 166.851 141.387 166.96C141.631 166.996 141.879 167.005 142.125 166.989Z" fill="#F95C19" stroke="#222132" stroke-width="0.89375"/>
<path d="M136.596 171.327C134.579 173.337 130.352 177.958 125.321 185.796L125.32 185.801L125.269 185.882C122.31 190.526 119.625 195.337 117.228 200.291C118.864 201.099 120.53 201.854 122.227 202.554C133.202 207.083 141.442 209.829 150.649 211.125C159.773 212.409 169.871 212.272 184.547 211.004C184.356 202.752 183.828 193.193 182.72 184.44C181.592 175.523 179.868 167.499 177.317 162.538L177.317 162.538L177.312 162.528C177.267 162.436 177.221 162.348 177.171 162.252C177.157 162.226 177.143 162.199 177.128 162.171C176.889 162.044 171.218 159.073 163.624 157.762C155.928 156.435 146.33 156.823 138.383 163.513C138.369 163.525 138.355 163.537 138.343 163.548L138.267 163.618C137.855 164.003 137.546 164.483 137.368 165.016C137.191 165.548 137.149 166.116 137.248 166.669L137.248 166.669L137.542 168.323C137.637 168.862 137.601 169.416 137.437 169.939C137.273 170.461 136.985 170.937 136.598 171.325L136.596 171.327Z" fill="#2F2E41" stroke="#222132" stroke-width="0.89375"/>
<path d="M171.897 133.586L187.611 142.09C188.828 142.749 190.228 142.998 191.601 142.799C192.973 142.6 194.243 141.964 195.22 140.987L229.295 106.921L229.472 106.745L229.715 106.803C231.403 107.203 233.174 107.082 234.792 106.458C236.41 105.833 237.798 104.734 238.771 103.307C239.267 102.58 239.524 102.052 239.662 101.506C239.803 100.95 239.831 100.346 239.823 99.4421C239.815 98.5426 239.773 97.4292 239.606 96.3638C239.438 95.2875 239.15 94.3144 238.685 93.6579C238.476 93.362 238.41 92.9672 238.401 92.5819C238.391 92.1825 238.44 91.7181 238.524 91.2235C238.693 90.2332 239.013 89.0548 239.35 87.9059C239.481 87.4573 239.614 87.0149 239.743 86.5876C239.948 85.908 240.141 85.2667 240.297 84.6996C240.423 84.2402 240.52 83.8453 240.575 83.5336C240.603 83.3778 240.619 83.2509 240.624 83.1521C240.626 83.1031 240.626 83.0649 240.624 83.0363C240.623 83.0223 240.622 83.0117 240.621 83.0042C240.62 82.9967 240.619 82.9934 240.619 82.9936L240.612 82.9701L240.609 82.9461C240.534 82.4777 240.396 82.1637 240.223 81.968C240.062 81.7857 239.842 81.6721 239.51 81.6567C239.162 81.6406 238.692 81.7341 238.073 81.9932C237.458 82.2506 236.721 82.6606 235.851 83.2467L235.838 83.2554L235.824 83.2632C235.435 83.4873 234.658 84.1088 233.659 84.9755C232.674 85.8303 231.508 86.8932 230.356 87.9697C228.045 90.1301 225.821 92.3181 225.241 92.9834C224.104 94.2856 223.394 95.9003 223.203 97.613C223.157 98.0576 223.146 98.5051 223.171 98.9515L223.184 99.1901L222.992 99.3331L189.009 124.672L188.804 124.825L188.567 124.726L179.428 120.867L171.897 133.586Z" fill="#FFAC71" stroke="#222132" stroke-width="0.89375"/>
<path d="M187.427 124.429L187.428 124.428C187.731 124.14 187.977 123.799 188.154 123.422L188.181 123.36C188.488 122.668 188.552 121.894 188.365 121.161C188.177 120.428 187.748 119.777 187.145 119.314C187.145 119.314 187.145 119.314 187.145 119.314L174.057 109.274L174.057 109.274L171.828 107.566L171.802 107.546L171.779 107.522C169.896 105.577 167.313 104.453 164.596 104.397C161.879 104.342 159.252 105.359 157.29 107.224C155.328 109.09 154.191 111.652 154.128 114.349C154.064 117.046 155.08 119.658 156.952 121.613L156.974 121.636L156.993 121.662L160.283 126.253L160.283 126.253L168.256 137.37C168.54 137.766 168.907 138.097 169.332 138.339C169.756 138.582 170.229 138.731 170.717 138.776L170.675 139.221L170.717 138.776C171.205 138.821 171.697 138.761 172.159 138.6C172.621 138.439 173.043 138.182 173.396 137.844L173.396 137.844L176.491 134.887L176.491 134.887L180.021 131.508L180.021 131.508L187.427 124.429Z" fill="#F95C19" stroke="#222132" stroke-width="0.89375"/>
<path d="M146.668 122.477L143.249 141.279L143.228 141.398C143.13 141.94 142.915 142.454 142.599 142.906C142.282 143.358 141.871 143.737 141.394 144.017C140.916 144.297 140.384 144.471 139.833 144.528C139.281 144.585 138.724 144.523 138.199 144.346L135.692 143.504L135.051 143.287L135.048 143.286L132.965 142.587L121.878 138.861L119.755 138.149C119.23 137.972 118.75 137.685 118.348 137.307C117.945 136.93 117.628 136.47 117.42 135.96C117.212 135.45 117.116 134.902 117.14 134.352C117.164 133.802 117.307 133.264 117.559 132.774L126.406 115.603C127.329 112.941 129.277 110.751 131.823 109.513C134.369 108.276 137.304 108.092 139.987 109.002C142.669 109.911 144.878 111.841 146.131 114.367C147.383 116.893 147.576 119.81 146.668 122.477Z" fill="#F95C19"/>
<path d="M154.638 69.2669C159.444 73.6944 163.094 77.1667 169.137 74.0989C173.105 72.0845 172.904 65.6115 172.067 61.2629C169.359 53.1531 166.025 50.0594 160.202 46.2914C151.177 42.5798 147.609 41.5245 138.775 43.6579C130.046 46.8646 127.259 51.6459 124.306 63.9016C121.155 72.5216 120.817 73.0006 117.519 80.4419C115.369 87.8805 106.183 90.6073 98.3978 90.8445C90.6127 91.0817 82.0627 90.2652 75.8045 94.8727C67.8211 100.75 67.7123 113.346 73.1637 121.6C78.6151 129.854 87.9918 134.615 97.2208 138.273C109.449 143.119 122.921 146.706 135.695 143.544C148.47 140.381 159.823 128.469 158.2 115.487C157.515 110.004 154.711 105.042 152.005 100.214C149.3 95.387 146.582 90.3553 146.098 84.8509C145.694 80.2639 147.252 75.2372 150.705 72.3508C151.33 71.8485 154.639 79.3231 154.847 78.5519C155.055 77.7806 156.706 71.0297 154.682 69.3076L154.638 69.2669Z" fill="#222132"/>
</svg>
