<svg width="18" height="11" viewBox="0 0 18 11" fill="none" xmlns="http://www.w3.org/2000/svg">
<path fill-rule="evenodd" clip-rule="evenodd" d="M8.78244 0.00192072C7.36559 0.0400907 5.86479 0.401416 4.47631 1.03862C3.72327 1.38422 2.81142 1.96682 2.09409 2.56066C0.885916 3.56088 0.172778 4.49071 0.0186577 5.26674C-0.00395319 5.38059 -0.00510849 5.41587 0.0103156 5.52248C0.0693561 5.93083 0.335241 6.39574 0.888826 7.05857C1.87589 8.24042 3.50616 9.38649 5.09898 10.0183C6.76104 10.6776 8.58763 10.9211 10.2378 10.7033C11.3906 10.5512 12.5744 10.201 13.6307 9.69959C14.4432 9.31392 15.4189 8.66026 16.1944 7.98206C17.2253 7.08049 17.8395 6.23424 17.9813 5.51977C18.004 5.40592 18.0051 5.37065 17.9897 5.26403C17.9254 4.8196 17.6246 4.31815 16.9737 3.57028C16.2519 2.74105 15.1244 1.8817 13.8988 1.22666C12.593 0.528739 10.9044 0.0733546 9.40511 0.0147792C9.01268 -0.000554782 8.93427 -0.00216035 8.78244 0.00192072ZM9.64523 1.38588C10.5584 1.52547 11.3626 1.91921 12.0049 2.54114C12.3705 2.89527 12.6171 3.23231 12.8344 3.6753C13.0752 4.16622 13.1983 4.62881 13.2303 5.16362C13.3154 6.58311 12.6279 7.92421 11.4006 8.73313C10.8583 9.09056 10.2807 9.30658 9.59266 9.4093C9.33669 9.44751 8.66331 9.44751 8.40734 9.4093C7.86332 9.32808 7.41039 9.18301 6.94908 8.94223C5.88866 8.38873 5.10474 7.38116 4.85326 6.24848C4.73075 5.6967 4.73075 5.08982 4.85326 4.53803C4.96933 4.01523 5.21841 3.47844 5.54797 3.04083C6.26858 2.08397 7.34756 1.48365 8.57239 1.3581C8.80219 1.33454 9.41277 1.35035 9.64523 1.38588ZM8.72645 2.81426C8.30745 2.85468 7.83314 3.01905 7.4846 3.24462C7.00037 3.55802 6.60165 4.065 6.42555 4.59126C6.04437 5.73039 6.50867 6.95057 7.56712 7.59133C8.0355 7.87488 8.6469 8.01803 9.19993 7.97363C10.2795 7.88697 11.1804 7.2266 11.5429 6.2561C11.8476 5.44029 11.6968 4.5192 11.1448 3.82534C10.5762 3.11051 9.65368 2.72484 8.72645 2.81426Z" fill="white"/>
</svg>
