<svg width="68" height="65" viewBox="0 0 68 65" fill="none" xmlns="http://www.w3.org/2000/svg">
<path opacity="0.6" d="M0.868652 32.8114C0.868652 15.0871 15.2371 0.718628 32.9614 0.718628H35.8071C53.5315 0.718628 67.8999 15.0871 67.8999 32.8114C67.8999 50.5358 53.5315 64.9042 35.8071 64.9042H32.9614C15.2371 64.9042 0.868652 50.5358 0.868652 32.8114Z" fill="#FFAF0F"/>
<path d="M33.5555 53.3702C30.7487 50.963 28.1471 48.3239 25.7778 45.4807C22.2222 41.2108 18 34.8518 18 28.7921C17.9985 25.6974 18.91 22.6718 20.6193 20.0982C22.3286 17.5246 24.7588 15.5187 27.6023 14.3344C30.4459 13.15 33.5749 12.8405 36.5935 13.4449C39.6121 14.0493 42.3845 15.5405 44.5599 17.7297C46.0082 19.1795 47.1562 20.9038 47.9374 22.8026C48.7186 24.7015 49.1175 26.7372 49.111 28.7921C49.111 34.8518 44.8888 41.2108 41.3333 45.4807C38.9639 48.3239 36.3623 50.963 33.5555 53.3702ZM33.5555 22.089C31.7874 22.089 30.0917 22.7952 28.8415 24.0523C27.5912 25.3094 26.8889 27.0144 26.8889 28.7921C26.8889 30.5699 27.5912 32.2749 28.8415 33.532C30.0917 34.789 31.7874 35.4953 33.5555 35.4953C35.3236 35.4953 37.0193 34.789 38.2695 33.532C39.5198 32.2749 40.2221 30.5699 40.2221 28.7921C40.2221 27.0144 39.5198 25.3094 38.2695 24.0523C37.0193 22.7952 35.3236 22.089 33.5555 22.089Z" fill="#F95C19"/>
</svg>
