<svg width="81" height="81" viewBox="0 0 81 81" fill="none" xmlns="http://www.w3.org/2000/svg">
<path fill-rule="evenodd" clip-rule="evenodd" d="M38.1363 0.560938C37.8756 0.597718 37.0935 0.703676 36.3982 0.796175C27.0334 2.04295 18.9396 9.27065 16.4335 18.6247C15.5994 21.7379 15.4424 25.7956 16.0513 28.4979C17.1567 33.4035 20.2654 40.497 24.2767 47.2663L25.7142 49.6923L20.3909 49.7826C15.507 49.8654 14.9821 49.9007 14.0293 50.2106C11.9202 50.8968 10.0819 52.4603 9.09473 54.4076C8.26758 56.0393 0.766987 72.5827 0.430597 73.5172C-0.489933 76.0754 0.634421 78.8064 3.10402 80.0106L4.15885 80.525H40.1113H76.0638L77.1186 80.0106C79.5882 78.8064 80.7126 76.0754 79.7921 73.5172C79.4557 72.5827 71.9551 56.0393 71.1279 54.4076C70.141 52.4608 68.3041 50.8982 66.1933 50.2098C65.2311 49.896 64.7639 49.8664 59.8223 49.8067C56.8894 49.7713 54.4897 49.7126 54.4897 49.6763C54.4897 49.6401 55.1054 48.5724 55.8578 47.3037C60.578 39.3454 63.721 31.8399 64.4556 26.7722C64.6744 25.2632 64.5705 22.5229 64.2203 20.5676C62.3962 10.3795 54.2122 2.40887 43.9034 0.780211C42.7764 0.6021 38.8898 0.454354 38.1363 0.560938ZM43.1202 14.2548C46.482 15.1775 49.2686 17.7515 50.4776 21.0508C51.9317 25.019 50.9303 29.3766 47.8669 32.411C46.5249 33.7404 45.1417 34.5798 43.2978 35.1836C42.2611 35.5231 41.8013 35.5804 40.1113 35.5804C38.4213 35.5804 37.9615 35.5231 36.9249 35.1836C35.0225 34.5606 33.6999 33.7481 32.2876 32.3348C28.5954 28.64 28.043 23.1249 30.9271 18.7487C33.5368 14.7886 38.4578 12.975 43.1202 14.2548ZM31.0895 57.6352C31.8997 58.9413 35.1296 62.8373 36.7141 64.4198C38.9789 66.6817 39.6531 67.0461 40.7828 66.6188C42.1019 66.1197 44.9829 63.0932 48.0684 58.9656L49.3259 57.2831L56.6875 57.2854C60.7362 57.2868 64.1344 57.3418 64.239 57.4075C64.3745 57.4929 70.4473 70.5682 71.5046 73.0516C71.5711 73.2078 65.2317 73.2472 40.1113 73.2472C14.991 73.2472 8.65153 73.2078 8.71805 73.0516C9.77541 70.5682 15.8481 57.4929 15.9837 57.4075C16.0883 57.3418 19.4806 57.2868 23.5224 57.2854L30.8711 57.2831L31.0895 57.6352Z" fill="#F95C19"/>
</svg>
