<svg width="91" height="81" viewBox="0 0 91 81" fill="none" xmlns="http://www.w3.org/2000/svg">
<path fill-rule="evenodd" clip-rule="evenodd" d="M25.9781 1.18347C25.5324 1.40173 25.0221 1.84712 24.7475 2.25738L24.2785 2.9586L24.2293 18.8846C24.1747 36.5764 24.1226 35.7354 25.34 36.7928C25.6694 37.0789 26.2377 37.3952 26.603 37.4955C27.5238 37.7486 62.6952 37.7486 63.616 37.4955C63.9813 37.3952 64.5496 37.0789 64.879 36.7928C66.0963 35.7354 66.0443 36.5764 65.9896 18.8846L65.9404 2.9586L65.4686 2.25339C65.1843 1.82851 64.6904 1.40138 64.2265 1.17912C63.4882 0.825556 63.2131 0.810425 57.5789 0.814077C50.8423 0.818425 50.6491 0.853034 49.7355 2.2186C49.2888 2.88643 49.2319 3.14382 49.1526 4.85548C49.0777 6.47183 49.0143 6.78853 48.7235 6.99861C48.4577 7.19061 47.6516 7.24505 45.0759 7.24505C40.9503 7.24505 41.0681 7.3127 41.0625 4.9407C41.057 2.63913 40.5726 1.69147 39.088 1.07773C38.5496 0.855121 37.4578 0.810251 32.5902 0.810425C26.9625 0.810599 26.7106 0.824686 25.9781 1.18347ZM48.1965 18.5675C49.8341 20.395 51.2005 21.9602 51.2327 22.0458C51.2651 22.1315 50.5728 22.2016 49.6946 22.2016H48.0979V26.5494V30.8973H45.1095H42.1211V26.5494V22.2016H40.5244C39.6461 22.2016 38.9539 22.1315 38.9862 22.0458C39.0757 21.8079 44.9847 15.2451 45.1095 15.2451C45.1696 15.2451 46.5589 16.7402 48.1965 18.5675ZM2.32906 44.1956C1.49706 44.489 0.672784 45.2316 0.349684 45.9787C0.149989 46.4404 0.108327 49.3138 0.111491 62.4135C0.115183 77.4455 0.13241 78.3255 0.438282 78.9843C0.82238 79.8118 1.21439 80.1826 2.08595 80.5429C2.65427 80.7779 4.96448 80.8104 21.0532 80.8104C39.2939 80.8104 39.3765 80.8089 40.1343 80.4459C40.6629 80.1927 41.0424 79.8341 41.3764 79.272L41.8574 78.4626L41.905 62.7554C41.9388 51.5982 41.8957 46.8392 41.7563 46.3269C41.4988 45.3811 40.4804 44.3801 39.5136 44.1225C39.0024 43.9863 36.9682 43.9396 33.1037 43.9754C27.5639 44.0267 27.4276 44.0363 26.7366 44.4283C25.4899 45.1354 25.1707 45.809 25.0696 47.9455C25.0126 49.1498 24.897 49.9027 24.7405 50.0888C24.5312 50.3375 24.0388 50.3756 21.0323 50.3756C16.8474 50.3756 16.9838 50.4434 16.9823 48.3618C16.9817 47.6043 16.894 46.673 16.7873 46.2926C16.5384 45.406 15.5023 44.381 14.6061 44.1347C13.522 43.837 3.20097 43.8881 2.32906 44.1956ZM50.471 44.1975C49.577 44.5159 48.7008 45.4523 48.4563 46.35C48.3252 46.8323 48.2811 51.9055 48.3139 62.7554L48.3616 78.4626L48.8425 79.272C49.1765 79.8341 49.556 80.1927 50.0846 80.4459C50.8426 80.8089 50.9207 80.8104 69.2041 80.8066C86.6416 80.8029 87.5977 80.7868 88.2655 80.4833C89.102 80.1033 89.4767 79.7155 89.841 78.8532C90.0776 78.2929 90.1113 76.2342 90.1113 62.3756C90.1113 49.4674 90.0674 46.4343 89.8738 45.9759C89.5599 45.2326 88.5254 44.3521 87.699 44.1251C86.7851 43.874 76.5324 43.8822 75.6128 44.1347C74.7167 44.381 73.6806 45.406 73.4316 46.2926C73.3249 46.673 73.2372 47.6178 73.2367 48.3921C73.2351 50.4375 73.3626 50.3756 69.1563 50.3756C66.1781 50.3756 65.6876 50.3373 65.4784 50.0888C65.322 49.9027 65.2063 49.1498 65.1494 47.9455C65.0483 45.809 64.7291 45.1354 63.4824 44.4283C62.7889 44.0349 62.6725 44.027 56.9752 43.9874C52.2901 43.9549 51.0388 43.9952 50.471 44.1975ZM24.1094 61.8104L27.2024 65.2452L25.6087 65.2953L24.0149 65.3452V69.7735V74.2017H21.0265H18.0381V69.7735V65.3452L16.4262 65.2953L14.8144 65.2452L17.8765 61.8133C19.5606 59.926 20.956 58.3803 20.9774 58.3785C20.9987 58.377 22.4082 59.9212 24.1094 61.8104ZM72.5411 62.0278L75.4144 65.2452L73.7976 65.2953L72.1809 65.3452V69.7735V74.2017H69.1925H66.2041V69.7735V65.3452L64.6102 65.2953L63.0165 65.2452L66.125 61.7933C68.6664 58.9712 69.273 58.3843 69.4507 58.5759C69.5703 58.7048 70.9609 60.2582 72.5411 62.0278Z" fill="#F95C19"/>
</svg>
