<svg width="86" height="81" viewBox="0 0 86 81" fill="none" xmlns="http://www.w3.org/2000/svg">
<path fill-rule="evenodd" clip-rule="evenodd" d="M36.104 0.421793C35.864 0.516513 4.58804 17.6356 3.44266 18.2991L2.96182 18.5776L11.5424 23.2841C16.2617 25.8727 20.2092 27.9905 20.3145 27.9905C20.5494 27.9905 52.2397 8.47379 52.2361 8.33122C52.2347 8.27535 49.0261 6.47218 45.1055 4.32431C39.0693 1.01729 37.8545 0.411454 37.1739 0.368096C36.7317 0.339914 36.2503 0.364094 36.104 0.421793ZM45.9444 18.684C39.4107 22.7144 32.2046 27.1586 29.9309 28.5599L25.7967 31.1076L31.3186 34.135C34.3556 35.8001 36.9086 37.1623 36.9918 37.1623C37.107 37.1623 70.7982 18.749 70.9836 18.5848C71.0157 18.5563 58.2153 11.5117 57.9123 11.3911C57.8636 11.3717 52.478 14.6534 45.9444 18.684ZM0.11149 41.3422C0.11149 60.9061 0.0769155 60.1615 1.01946 60.941C1.25155 61.1327 8.18322 65.2165 16.4234 70.0159C24.6635 74.8152 32.0241 79.1053 32.7803 79.5492L34.1551 80.3563L34.1101 61.0769L34.065 41.7976L18.7283 33.3834C10.2931 28.7556 2.65348 24.5635 1.75154 24.0673L0.11149 23.1655V41.3422ZM56.8042 32.5451L39.8274 41.86V61.1149C39.8274 77.0725 39.8676 80.3468 40.0627 80.2364C43.1947 78.4616 48.5153 75.2623 48.5153 75.1537C48.5153 75.0739 48.2314 74.4784 47.8844 73.8303C45.1929 68.8037 44.7963 62.4892 46.8383 57.1735C48.0179 54.1023 49.6092 51.7795 52.2218 49.3143C55.4989 46.2222 59.2031 44.324 63.7633 43.3993C65.7307 43.0004 70.4922 42.9848 72.4512 43.371C73.1826 43.5151 73.8015 43.6148 73.8267 43.5926C73.8519 43.5704 73.8519 38.9799 73.8267 33.3912L73.7809 23.2302L56.8042 32.5451ZM65.2424 48.5819C59.4981 49.5623 54.5682 53.3259 52.429 58.3637C51.4782 60.6029 51.2766 61.6732 51.2869 64.4276C51.2973 67.1868 51.5491 68.4 52.5884 70.6969C54.2038 74.2674 57.6579 77.5092 61.4736 79.0364C65.4872 80.6428 69.9643 80.7532 74.0942 79.3478C78.3726 77.8918 82.2583 74.339 83.9628 70.3247C84.8963 68.1263 85.1113 67.0064 85.1113 64.3442C85.1113 61.682 84.8963 60.5621 83.9628 58.3637C82.709 55.4112 79.9649 52.3562 77.082 50.7036C73.5854 48.6993 69.1803 47.9098 65.2424 48.5819ZM73.5733 59.2353C74.7696 59.7054 75.4657 60.9833 75.2136 62.247C75.0471 63.0822 68.7448 70.4549 67.9207 70.7788C66.3988 71.377 65.5828 71.0243 63.2032 68.7402C61.6984 67.2958 61.2878 66.7989 61.1887 66.3021C60.9892 65.3022 61.2382 64.512 61.9694 63.8242C63.0913 62.7691 64.6759 62.748 65.881 63.7719L66.5592 64.3482L68.6345 61.9138C69.9813 60.3341 70.9067 59.3989 71.2703 59.2502C71.9927 58.9545 72.845 58.949 73.5733 59.2353Z" fill="#F95C19"/>
</svg>
