<svg width="81" height="81" viewBox="0 0 81 81" fill="none" xmlns="http://www.w3.org/2000/svg">
<path fill-rule="evenodd" clip-rule="evenodd" d="M11.5477 0.576846C10.1486 1.04537 8.9458 2.00353 8.3273 3.14185C8.18664 3.40066 6.37024 7.56437 4.29092 12.3944C1.12233 19.7548 0.483615 21.3682 0.346078 22.3603C0.242392 23.1086 0.199833 30.3618 0.230397 42.0755C0.28413 62.6967 0.194575 61.1546 1.38541 61.9629L1.92191 62.3272L22.003 62.3681L42.0842 62.409L42.165 62.9155C42.2094 63.194 42.287 63.8793 42.3371 64.4383C42.4827 66.0627 43.1871 68.2894 44.1492 70.1665C49.8825 81.3521 65.3329 83.8389 74.6297 75.0724C78.345 71.569 80.2207 67.229 80.2207 62.1358C80.2207 56.4221 77.4851 51.2133 72.6782 47.7746C69.8353 45.7408 66.8749 44.6316 63.0903 44.182L62.3098 44.0893L62.3084 33.5822C62.3078 27.2322 62.2414 22.6882 62.1407 22.0977C62.0294 21.4457 60.738 18.2443 58.2612 12.4801C56.219 7.72795 54.4038 3.56893 54.2272 3.23787C53.7276 2.30129 52.719 1.36017 51.6766 0.857867L50.7251 0.399351L31.4996 0.366354C14.4643 0.337267 12.1913 0.361194 11.5477 0.576846ZM27.4738 7.44161C27.4738 8.94805 27.7138 9.66694 28.3493 10.0632C28.7152 10.2912 29.2389 10.3297 31.9842 10.3297H35.1916L35.7283 9.87368C36.2616 9.42048 36.2653 9.40735 36.321 7.76063L36.3772 6.10375L42.7053 6.14456L49.0333 6.18554L50.8822 10.4861C51.8992 12.8514 53.2537 16.0006 53.8923 17.4842L55.0532 20.1818H45.7002H36.3471V18.3756C36.3471 15.3124 36.1632 15.1776 31.9845 15.1776C27.7314 15.1776 27.6 15.2683 27.5024 18.2662L27.4399 20.1818H17.4236C11.9146 20.1818 7.4444 20.1246 7.48975 20.0547C7.56386 19.9409 13.0109 7.31791 13.3567 6.45921L13.4983 6.10734H20.486H27.4738V7.44161ZM65.3001 50.4769C72.1846 52.7268 75.777 59.4962 73.5805 66.0804C71.9011 71.1145 66.8504 74.6033 61.2417 74.6033C55.3242 74.6033 50.29 70.9369 48.6376 65.4234C48.1193 63.6938 48.1193 60.8041 48.6376 59.0747C49.3642 56.6501 50.5457 54.8081 52.4397 53.1468C55.1496 50.77 57.7775 49.8595 61.6525 49.955C63.5972 50.0031 64.0471 50.0675 65.3001 50.4769ZM56.2029 55.2158C54.4707 55.4996 53.3765 57.28 53.934 58.9072C54.0696 59.3029 54.6281 59.9872 55.5478 60.8844L56.9544 62.2565L55.613 63.5429C53.7636 65.3166 53.4075 66.2665 54.0756 67.6442C54.6222 68.7713 55.484 69.2862 56.8239 69.2862C57.8351 69.2862 58.3971 68.972 59.9347 67.5469L61.2569 66.3217L62.4816 67.503C64.0512 69.0169 64.6903 69.341 65.937 69.2551C67.0861 69.176 67.9468 68.6202 68.4039 67.6623C69.0734 66.2594 68.7245 65.3211 66.8736 63.546L65.5355 62.2626L66.9495 60.8667C68.714 59.1246 69.0408 58.2825 68.4631 56.966C67.9604 55.821 66.9615 55.1804 65.6783 55.1804C64.6388 55.1804 64.0479 55.5053 62.644 56.8484L61.2612 58.1713L59.7388 56.7698C58.9016 55.9988 58.1577 55.3664 58.0859 55.3644C58.0141 55.3623 57.6965 55.3059 57.3801 55.2389C57.0638 55.172 56.534 55.1615 56.2029 55.2158Z" fill="#F95C19"/>
</svg>
