<svg width="101" height="81" viewBox="0 0 101 81" fill="none" xmlns="http://www.w3.org/2000/svg">
<path fill-rule="evenodd" clip-rule="evenodd" d="M6.48009 0.77786C5.54402 1.03871 5.01996 1.43109 4.61264 2.17614C4.25655 2.8274 4.23269 3.32708 4.23211 10.1339C4.23133 18.1375 4.23876 18.1932 5.45055 19.1572L6.089 19.6652H14.7274C23.1472 19.6652 23.3797 19.6538 23.9061 19.2154C24.2031 18.9681 24.6274 18.4948 24.8492 18.1635C25.2379 17.5829 25.2524 17.2948 25.2524 10.1776C25.2524 3.06034 25.2379 2.77222 24.8492 2.19162C24.6274 1.86032 24.2031 1.38703 23.9063 1.1397C23.3832 0.703703 23.1157 0.688874 15.2166 0.652232C10.7342 0.631512 6.80274 0.688001 6.48009 0.77786ZM32.0349 0.791164C31.6782 0.888439 31.1639 1.19968 30.8919 1.48321C29.8588 2.55956 29.8477 2.65204 29.8477 10.1915C29.8477 16.9076 29.8651 17.2411 30.2572 18.0193C31.108 19.7079 30.845 19.6652 40.4071 19.6652C48.5621 19.6652 48.9407 19.647 49.5756 19.2289C50.9317 18.3358 50.9665 18.1103 50.9665 10.214C50.9665 2.30744 50.9345 2.09195 49.6259 1.18419C48.9178 0.693017 48.8621 0.689746 40.7982 0.652232C36.3349 0.631512 32.3913 0.693889 32.0349 0.791164ZM58.5943 12.4073C58.1114 12.6803 57.5173 13.2374 57.2744 13.645L56.8329 14.3861V30.9177V47.4492L56.361 48.0612L55.8892 48.6732L28.999 48.7822C2.22093 48.8909 2.10654 48.8933 1.56898 49.341C1.27195 49.5884 0.847618 50.0617 0.62587 50.393C0.238104 50.9722 0.222656 51.2649 0.222656 58.0517C0.222656 64.8385 0.238104 65.1312 0.62587 65.7105C0.847618 66.0418 1.27175 66.5151 1.56859 66.7624C2.08327 67.1912 2.3979 67.215 8.34442 67.2754L14.5803 67.3385L14.7016 68.1478C15.6087 74.2057 19.5235 78.9755 24.6853 80.3118C26.595 80.806 29.3917 80.7495 31.2151 80.1801C35.9501 78.7009 39.5772 74.3878 40.5645 69.063L40.8874 67.3212H50.2252H59.5631L59.6534 67.812C60.0979 70.2277 60.2964 70.9359 60.9835 72.5558C61.6439 74.1122 62.0565 74.7248 63.5545 76.3726C66.3424 79.4392 68.9838 80.6534 72.8417 80.6414C76.455 80.63 79.3657 79.2706 81.9768 76.3752C83.2234 74.9929 83.7293 74.2312 84.3703 72.7712C85.166 70.9588 85.7735 68.8152 85.7735 67.8207V67.3212H90.5569C94.8681 67.3212 95.4442 67.278 96.39 66.8833C97.8132 66.2894 98.9366 65.1609 99.5964 63.6623L100.146 62.4138L100.209 55.6526C100.277 48.4756 100.096 45.3218 99.4652 42.6334C98.6777 39.2807 97.5379 36.7526 95.3535 33.5149C93.4868 30.7482 92.3495 28.7501 90.0691 24.2305C88.8625 21.8394 87.4978 19.2883 87.0363 18.5611C85.6875 16.4354 83.0664 13.8158 81.3317 12.8594L79.8303 12.0315L69.6516 11.971L59.4727 11.9106L58.5943 12.4073ZM78.212 18.0028C80.0748 19.0257 81.116 20.4985 84.7915 27.3084C86.9573 31.3214 88.3015 34.28 88.7743 36.0745C89.2861 38.0176 90.1531 37.8887 77.0074 37.8242L65.5346 37.7679L65.4838 27.5623L65.4329 17.3569L71.3501 17.4204C77.1285 17.4826 77.2894 17.4963 78.212 18.0028ZM5.6502 24.9313C5.30135 25.123 4.83947 25.5987 4.62359 25.988C4.25127 26.6598 4.23133 27.0692 4.23133 33.999C4.23133 41.2286 4.23582 41.3095 4.67521 42.0432C5.58039 43.5545 5.52955 43.5471 14.7497 43.5473C22.5867 43.5477 23.0586 43.5252 23.7729 43.1187C24.295 42.8219 24.6566 42.3909 24.9485 41.718C25.3582 40.7745 25.3687 40.5411 25.3114 33.6952C25.253 26.7124 25.2481 26.6378 24.797 25.9324C23.9129 24.5498 24.077 24.5721 14.7516 24.5775C7.39289 24.5819 6.20144 24.6281 5.6502 24.9313ZM31.1966 25.0676C29.8575 26.0655 29.834 26.2312 29.8929 34.2782C29.9443 41.3276 29.9545 41.4897 30.3815 42.1577C31.2693 43.5455 31.2848 43.5477 40.4366 43.5473C49.5594 43.5471 49.5567 43.5475 50.4638 42.1689C50.8518 41.5793 50.8709 41.2454 50.9212 34.208C50.9712 27.1787 50.9566 26.8321 50.5807 26.1518C50.3647 25.7608 49.9012 25.246 49.5506 25.0076C48.9405 24.5926 48.55 24.5741 40.3872 24.5734L31.861 24.5725L31.1966 25.0676ZM28.93 60.7909C30.1956 61.1473 31.4768 62.3085 32.0705 63.6374C33.678 67.2353 31.3157 71.4609 27.6967 71.4609C24.1219 71.4609 21.7521 67.2048 23.3642 63.6799C24.4432 61.3211 26.6834 60.1582 28.93 60.7909ZM74.1519 60.8808C76.7397 61.7419 78.1097 64.7391 77.3451 67.8665C77.0512 69.0689 75.3414 70.9152 74.2063 71.2563C71.3142 72.1248 68.5312 70.2478 67.9535 67.039C67.4615 64.3063 69.1289 61.4339 71.5965 60.7639C72.5299 60.5104 73.1202 60.5375 74.1519 60.8808Z" fill="#F95C19"/>
</svg>
