<svg width="101" height="81" viewBox="0 0 101 81" fill="none" xmlns="http://www.w3.org/2000/svg">
<path fill-rule="evenodd" clip-rule="evenodd" d="M9.71336 0.513645C7.97059 1.15541 6.49324 2.34301 5.49276 3.9066C4.48778 5.47733 4.03204 7.05215 4.06021 8.85783C4.12965 13.3284 6.98165 16.8103 11.2022 17.5772C15.8543 18.4227 20.5796 14.5937 20.8783 9.73659C20.9815 8.05909 21.048 7.98622 22.4874 7.97622C23.5759 7.96867 25.1313 7.10339 25.6727 6.20422C26.3661 5.05296 27.0255 2.9119 26.888 2.25829C26.7387 1.54937 26.1355 0.872291 25.5063 0.707359C25.2362 0.636528 23.2362 0.760022 21.0619 0.981701C17.2779 1.3675 17.0835 1.36933 16.5217 1.02538C14.7277 -0.0736199 11.8876 -0.287135 9.71336 0.513645ZM78.9955 2.37342C75.7329 3.42221 73.2492 6.41875 72.7239 9.93969C71.9 15.4627 76.1204 20.6311 81.4543 20.6311C88.0552 20.6311 92.373 13.5066 89.5272 7.31078C88.0106 4.00866 84.9847 2.03845 81.4782 2.07009C80.6076 2.07785 79.4904 2.21441 78.9955 2.37342ZM28.2759 16.3529C27.4883 16.5988 26.4316 17.7211 26.2141 18.5427C25.9565 19.5166 26.6998 30.4491 27.1016 31.5932C27.464 32.6256 28.5011 33.6297 29.3781 33.7969C29.73 33.8641 33.5387 33.8916 37.8418 33.8581L45.6657 33.7971L46.326 33.3056C46.6893 33.0353 47.1534 32.4201 47.3576 31.9386C47.7228 31.0765 47.7222 30.9686 47.3203 24.9965C46.8937 18.6617 46.7697 18.0083 45.8261 17.1177C44.8309 16.1785 44.4475 16.1394 36.43 16.1579C32.2579 16.1675 28.5885 16.2553 28.2759 16.3529ZM12.7076 20.2653C8.30839 20.4774 7.58018 20.7015 6.68004 22.1204L6.15506 22.9479L6.02987 39.089C5.91154 54.3592 5.74254 59.6176 5.29482 61.9663C4.99027 63.5637 4.49033 64.9144 2.23998 70.2219C0.376329 74.6167 0.152957 75.2668 0.23765 76.0502C0.361072 77.1935 1.02434 78.146 2.02815 78.6218C2.94863 79.058 4.60886 79.127 5.41237 78.7624C6.8862 78.0937 7.20189 77.6365 9.46065 72.9008C12.1789 67.2018 12.6407 65.8805 14.1006 59.6276C14.7416 56.8819 15.2949 54.6053 15.3301 54.5684C15.4094 54.4859 20.5753 62.7534 20.9729 63.5993C21.629 64.9944 21.9155 66.5143 22.4657 71.516C22.9796 76.1853 23.1016 76.8804 23.5484 77.6757C24.6222 79.5879 27.5739 80.245 29.2166 78.9376C30.7008 77.7561 30.7428 77.2695 30.0128 69.723C29.232 61.6495 29.3498 62.1318 25.793 52.431C23.566 46.3573 23.2698 45.4046 23.2698 44.3171C23.2698 43.6394 23.2917 43.0756 23.3187 43.0644C23.3457 43.0531 26.0962 42.9304 29.4311 42.7916C36.0386 42.5167 36.233 42.4779 37.2317 41.2393C37.9535 40.3442 37.9535 38.8851 37.2317 37.99C36.2182 36.733 35.9522 36.674 30.781 36.5571C25.8748 36.4464 25.6755 36.4089 25.2158 35.5128C25.1145 35.3152 24.6359 32.5442 24.1524 29.3548C23.0228 21.9071 23.1403 22.4182 22.33 21.43C21.0801 19.9063 20.8161 19.8742 12.7076 20.2653ZM72.4625 23.0847C71.2915 23.3292 69.8531 23.9663 67.0834 25.467C63.4848 27.4166 63.5468 27.4174 58.2152 25.3474C55.3196 24.2233 53.684 23.693 53.1123 23.693C51.004 23.693 50.0011 26.2029 51.1133 28.6954C51.8182 30.2752 52.5877 30.8326 55.7531 32.0559C63.6814 35.1205 63.5161 35.1041 68.6071 33.3266C70.4671 32.6773 72.0295 32.1884 72.079 32.2401C72.1287 32.2919 72.1691 42.3342 72.1691 54.5563C72.1691 74.1521 72.2049 76.8677 72.4719 77.5344C73.1536 79.237 74.443 80.0198 76.5775 80.0268C78.3181 80.0325 79.4467 79.4846 80.2839 78.2278L80.8732 77.3427L80.9268 65.7252L80.9804 54.1075H81.5625H82.1446V65.5466C82.1446 76.3893 82.164 77.0251 82.5168 77.743C83.302 79.3409 84.5358 80.0313 86.6064 80.0313C88.278 80.0313 89.4163 79.4646 90.2619 78.2121L90.8487 77.3427L90.9029 63.3915L90.9569 49.4402L91.9393 49.1395C93.6854 48.6053 94.168 48.1058 96.505 44.4116C100.291 38.4277 100.227 38.5563 100.222 36.8835C100.219 36.0764 100.102 35.2031 99.9575 34.9198C99.8147 34.6391 98.1985 32.2221 96.3661 29.5485C93.9968 26.0916 92.7943 24.515 92.2022 24.09C90.6155 22.9508 89.9075 22.8742 81.1744 22.8989C76.8132 22.9112 72.8929 22.9947 72.4625 23.0847ZM92.2889 35.1049C93.6299 37.1227 93.6316 37.6242 92.3047 39.6947C91.7608 40.5432 91.2326 41.2913 91.1311 41.3569C91.0177 41.4299 90.9465 39.8819 90.9465 37.3405C90.9465 35.0068 91.02 33.2897 91.1153 33.3991C91.2082 33.5056 91.7363 34.2733 92.2889 35.1049Z" fill="#F95C19"/>
</svg>
