<svg width="66" height="81" viewBox="0 0 66 81" fill="none" xmlns="http://www.w3.org/2000/svg">
<path fill-rule="evenodd" clip-rule="evenodd" d="M42.8127 1.08209C40.8052 1.58475 39.1846 2.71668 38.1574 4.3333C37.3198 5.6517 37.0531 6.95524 37.0531 9.73021V12.0711L34.7114 12.1219C32.167 12.1773 31.8866 12.2648 31.0962 13.249C30.6229 13.8386 30.6229 15.0399 31.0962 15.6295C31.8917 16.6203 32.1576 16.7012 34.7954 16.7562L37.2211 16.8069V17.2392C37.2211 17.9907 37.877 20.1014 38.4758 21.2765C39.9652 24.2001 42.2887 26.3333 45.4838 27.7109C47.6524 28.6457 48.8762 28.8846 51.5089 28.8864C53.3555 28.8877 54.0218 28.8231 55.0874 28.5398C59.4483 27.3794 62.6943 24.8254 64.5415 21.1011C65.6446 18.8766 65.6744 18.6664 65.752 12.528C65.829 6.43195 65.7842 6.03541 64.8306 4.39707C64.3102 3.50287 62.7681 2.0996 61.8021 1.64133C60.1941 0.878582 59.6924 0.840444 51.4315 0.851386C45.3278 0.859513 43.5067 0.908279 42.8127 1.08209ZM6.70425 25.1313C6.02852 25.405 5.32153 26.2032 5.19899 26.8306C5.14504 27.1076 5.12319 31.2502 5.15042 36.0364C5.19866 44.5453 5.20757 44.7485 5.54644 45.1705C5.73705 45.4077 6.10181 45.7469 6.35714 45.9242C6.81368 46.2411 6.98412 46.2464 16.7684 46.2464H26.7155L27.2808 45.8715C28.3298 45.1758 28.3123 45.3493 28.3123 35.618C28.3123 25.8867 28.3298 26.0602 27.2808 25.3645C26.7309 24.9997 26.6136 24.9883 22.9754 24.9422L19.2354 24.8948V27.2109C19.2354 29.9566 19.0741 30.393 17.8404 30.9837C16.9003 31.4337 15.961 31.3432 15.1725 30.7262C14.3337 30.0699 14.1927 29.5487 14.1927 27.1046V24.9114L10.7048 24.9175C8.18664 24.9219 7.07438 24.9814 6.70425 25.1313ZM48.8194 33.8913C46.5685 34.3429 44.538 35.1858 42.851 36.3687C42.297 36.7573 38.56 40.2114 34.5466 44.0445L27.2497 51.0136H17.4516C10.783 51.0136 7.36922 51.0702 6.76291 51.1909C5.31111 51.4799 4.09951 52.1012 3.00726 53.1168C0.670627 55.2894 0.117104 58.4676 1.5995 61.1982C2.62956 63.0955 4.65488 64.5229 6.88074 64.9202C7.60068 65.0486 11.3039 65.0854 19.8237 65.0483C31.5087 64.9977 31.7779 64.9897 32.6973 64.6651C34.3259 64.0902 34.743 63.8248 36.4227 62.2948L38.0616 60.8021V69.8722V78.9422L38.444 79.6146C39.2038 80.9507 38.3766 80.8771 52.1103 80.8302L64.2261 80.7889L64.8378 80.355C65.219 80.0845 65.5182 79.7017 65.632 79.3391C65.7598 78.9314 65.7984 73.6294 65.7606 61.6421L65.7068 44.5271L65.3372 43.4518C64.4814 40.9632 63.3171 39.1949 61.403 37.477C59.5021 35.7709 57.6753 34.7926 55.1228 34.1138C53.5727 33.7014 50.3356 33.5873 48.8194 33.8913Z" fill="#F95C19"/>
</svg>
