<svg width="91" height="81" viewBox="0 0 91 81" fill="none" xmlns="http://www.w3.org/2000/svg">
<path fill-rule="evenodd" clip-rule="evenodd" d="M23.2187 1.03269C21.9007 1.62588 20.8694 2.54297 20.1784 3.73647C19.2782 5.29138 19.1719 5.82532 19.0759 9.27789L18.9863 12.4997H11.5467C6.76928 12.4997 3.7824 12.5758 3.19934 12.7126C2.04727 12.983 0.708516 14.315 0.416895 15.481C0.282422 16.0194 0.224238 23.6237 0.223711 40.8004L0.222656 65.3504L0.713789 66.379C1.07133 67.1278 1.43818 67.5658 2.06203 67.988L2.91914 68.5679L11.6625 68.6641L20.4059 68.7602L20.7734 69.2717C20.9756 69.5529 21.4966 70.0289 21.9315 70.3296L22.722 70.876L22.7223 73.5134C22.7227 75.6898 22.7849 76.333 23.0784 77.1913C23.5151 78.4688 24.4277 79.5288 25.6088 80.1305C26.4613 80.565 26.6735 80.5855 30.2812 80.5832C33.5613 80.5813 34.1534 80.5346 34.7637 80.2303C35.7568 79.7348 36.5391 78.9616 37.0963 77.9245C37.5412 77.096 37.5825 76.8348 37.6641 74.3382L37.752 71.6454H45.2227H52.6934L52.7812 74.3382C52.8628 76.8348 52.9041 77.096 53.349 77.9245C53.9063 78.9616 54.6885 79.7348 55.6816 80.2303C56.292 80.5346 56.884 80.5813 60.1641 80.5832C63.7718 80.5855 63.984 80.565 64.8365 80.1305C66.0176 79.5288 66.9302 78.4688 67.3669 77.1913C67.6604 76.333 67.7227 75.6898 67.723 73.5134L67.7234 70.876L68.5138 70.3296C68.9487 70.0289 69.4697 69.5529 69.6719 69.2717L70.0395 68.7602L78.7828 68.6641L87.5262 68.5679L88.3833 67.988C89.0071 67.5658 89.374 67.1278 89.7315 66.379L90.2227 65.3504L90.2216 40.8004C90.2211 23.6237 90.1629 16.0194 90.0284 15.481C89.7368 14.315 88.398 12.983 87.246 12.7126C86.6629 12.5758 83.676 12.4997 78.8987 12.4997H71.4591L71.3694 9.27789C71.2734 5.82532 71.1671 5.29138 70.2669 3.73647C69.5759 2.54297 68.5446 1.62588 67.2266 1.03269L66.2285 0.583374H45.2227H24.2168L23.2187 1.03269ZM63.8555 31.4509V54.2491L61.4385 54.1956L59.0215 54.1421L58.9336 44.3326C58.8714 37.3786 58.7861 34.4111 58.6411 34.1383C58.0608 33.0474 56.9346 32.3111 55.846 32.3111H55.2422L55.2411 27.8391C55.2406 25.3565 55.1594 23.0489 55.0587 22.6518C54.8157 21.695 54.0949 20.7935 53.2279 20.3627C52.5752 20.0382 51.9248 20.0095 45.2227 20.0095C38.5205 20.0095 37.8701 20.0382 37.2174 20.3627C36.3504 20.7935 35.6296 21.695 35.3866 22.6518C35.2859 23.0489 35.2047 25.3565 35.2042 27.8391L35.2031 32.3111H34.5993C33.5107 32.3111 32.3845 33.0474 31.8042 34.1383C31.6592 34.4111 31.5739 37.3786 31.5117 44.3326L31.4238 54.1421L29.0068 54.1956L26.5898 54.2491V31.4509V8.65278H45.2227H63.8555V31.4509ZM47.5743 44.4768L49.7815 47.2177L48.6486 47.2745L47.5159 47.3312L47.4679 50.7367L47.4199 54.1421H45.2227H43.0254L42.9774 50.7367L42.9294 47.3312L41.7967 47.2745L40.6638 47.2177L42.8711 44.4768C44.085 42.9694 45.1432 41.7359 45.2227 41.7359C45.3021 41.7359 46.3603 42.9694 47.5743 44.4768Z" fill="#F95C19"/>
</svg>
