<svg width="120" height="72" viewBox="0 0 120 72" fill="none" xmlns="http://www.w3.org/2000/svg">
<path fill-rule="evenodd" clip-rule="evenodd" d="M3.03317 0.14872C2.24355 0.292204 0.983847 1.27431 0.435235 2.17413C0.000800419 2.88639 -0.0123288 3.71259 0.00408271 29.1672C0.016743 48.6704 0.0917669 55.6087 0.296207 56.1374C0.873187 57.6297 2.08951 58.6988 3.65939 59.094C4.59531 59.3299 4.67432 59.4089 4.67432 60.1104C4.67432 62.7027 5.92182 65.7036 7.83142 67.7058C10.0678 70.0503 12.6083 71.1072 15.9279 71.0735C21.7153 71.0149 26.1785 66.8346 26.8153 60.8766L26.9843 59.294H33.0094H39.0345L39.3142 61.3455C39.6978 64.1584 40.7699 66.3029 42.6741 68.0657C44.9973 70.2168 47.18 71.0871 50.2748 71.0965C56.0518 71.114 60.5122 67.025 61.2953 60.9938L61.4552 59.7629L88.8051 59.7615C107.167 59.7608 116.446 59.6795 117.041 59.5144C118.208 59.1902 119.459 58.0662 119.799 57.0356C119.95 56.5798 120.034 55.4411 119.987 54.5052C119.915 53.0802 119.794 52.6636 119.247 51.9454C117.868 50.1371 119.975 50.2752 92.6515 50.2039L68.2102 50.1399L68.2062 44.6944C68.2015 38.6003 67.9654 35.6786 67.2543 32.9184C66.279 29.1333 65.061 26.8317 61.2995 21.6649C60.079 19.9885 58.2186 17.0872 57.1655 15.2175C52.7217 7.32968 52.5201 7.02935 49.9233 4.42907C48.5305 3.03409 46.9446 1.68859 46.2715 1.33035C43.6816 -0.0479825 44.0947 -0.0245368 22.9708 0.0101618C12.3275 0.0277455 3.35554 0.0901081 3.03317 0.14872ZM41.8346 6.53185C44.0304 7.60891 45.3279 9.22591 49.4193 15.9851C53.0668 22.0109 55.0399 26.1956 54.7157 27.2173C54.587 27.6227 53.9059 27.6433 40.6466 27.6433H26.7126V16.7285V5.81373L33.6875 5.88523C40.546 5.95557 40.6818 5.96635 41.8346 6.53185ZM77.2156 11.6752C76.2403 12.27 75.5306 13.2144 75.2354 14.3102C75.0755 14.904 75.0146 19.8971 75.0589 28.7741L75.1264 42.3311L75.7866 43.3287C76.2018 43.9561 76.8109 44.4913 77.4278 44.7715C78.3602 45.1947 79.1861 45.2167 94.1168 45.2167C108.907 45.2167 109.881 45.1914 110.781 44.7825C111.897 44.2754 112.656 43.3953 113.002 42.2062C113.166 41.6432 113.225 36.7468 113.178 27.626L113.107 13.8933L112.525 13.0439C111.367 11.3547 110.871 11.2319 105.197 11.2319C100.351 11.2319 100.135 11.2516 99.3737 11.765C98.2621 12.5141 97.5508 13.6727 97.3712 15.0269C97.1433 16.7449 96.9412 16.8586 94.1168 16.8586C91.2744 16.8586 91.0875 16.7494 90.8763 14.9673C90.7032 13.5046 89.9849 12.3715 88.8138 11.7132C88.024 11.2694 87.5672 11.2319 82.9486 11.2328C78.4568 11.2335 77.865 11.2792 77.2156 11.6752ZM17.4863 56.7317C19.9117 57.9058 20.3257 61.0451 18.2965 62.8783C17.2983 63.7802 16.2894 64.1035 15.1476 63.8878C11.5596 63.2096 10.8007 58.4179 14.0124 56.7214C15.1355 56.1283 16.2465 56.1315 17.4863 56.7317ZM52.0425 56.7861C53.2002 57.3983 54.1432 58.8924 54.1432 60.1146C54.1432 61.3368 53.2002 62.8309 52.0425 63.4431C51.481 63.7401 50.6855 63.983 50.2748 63.983C49.0526 63.983 47.5584 63.0401 46.9463 61.8823C46.2671 60.5983 46.264 59.6757 46.9338 58.3473C47.3193 57.583 47.7432 57.1591 48.5075 56.7737C49.8359 56.1039 50.7584 56.1069 52.0425 56.7861Z" fill="#F95C19"/>
</svg>
