<svg width="111" height="81" viewBox="0 0 111 81" fill="none" xmlns="http://www.w3.org/2000/svg">
<path fill-rule="evenodd" clip-rule="evenodd" d="M1.46286 0.279035C1.20861 0.402578 0.841513 0.808348 0.647005 1.18092C0.322681 1.80208 0.29861 4.45856 0.35707 33.267C0.420473 64.6039 0.421762 64.6772 0.863865 65.2712C1.10759 65.5987 1.57377 66.0666 1.90002 66.3111C2.46571 66.735 2.81152 66.7585 9.34742 66.8182L16.2014 66.8805L16.3347 67.6806C17.3317 73.6691 21.6345 78.3842 27.3079 79.7052C29.4069 80.1938 32.4808 80.1379 34.4849 79.575C39.6892 78.1127 43.6758 73.8491 44.761 68.5853L45.1158 66.8635H55.3792H65.6425L65.7418 67.3486C66.2304 69.7366 66.4485 70.4367 67.2038 72.038C67.9296 73.5766 68.3831 74.1822 70.0296 75.8111C73.0938 78.8425 75.997 80.0428 80.2373 80.031C84.2087 80.0198 87.4079 78.6759 90.2778 75.8137C91.6479 74.4472 92.204 73.6943 92.9085 72.251C93.783 70.4593 94.4508 68.3404 94.4508 67.3572V66.8635H99.7083C104.447 66.8635 105.08 66.8208 106.12 66.4305C107.684 65.8434 108.919 64.7279 109.644 63.2464L110.248 62.0123L110.317 55.3285C110.391 48.2338 110.193 45.1161 109.499 42.4585C108.634 39.1442 107.381 36.6451 104.98 33.4445C102.929 30.7095 101.679 28.7343 99.1721 24.2665C97.846 21.9028 96.346 19.3809 95.8388 18.6621C94.356 16.5606 91.4754 13.9711 89.5687 13.0257L87.9183 12.2072H76.6233C70.4111 12.2072 65.1108 12.2866 64.8447 12.3834L64.3612 12.5598V7.16507C64.3612 3.74555 64.2758 1.58259 64.128 1.25702C63.9997 0.97458 63.622 0.581962 63.2887 0.384466C62.7309 0.0539417 60.2776 0.0265596 32.3041 0.0401428C11.7226 0.0500607 1.77601 0.127033 1.46286 0.279035ZM45.5351 15.9685C46.0931 16.5284 46.1999 16.8014 46.1999 17.6681V18.7007L39.0285 27.6951C35.0842 32.642 31.6533 36.8325 31.4044 37.0074C31.1555 37.1822 30.5181 37.3254 29.9878 37.3254H29.0237L23.749 32.0467L18.4745 26.768V25.6904C18.4745 24.7609 18.571 24.516 19.1771 23.908C19.7823 23.3011 20.0282 23.2032 20.9481 23.2032H22.0164L26.0117 27.1919C29.8062 30.9803 30.0222 31.159 30.3122 30.7494C32.0619 28.2783 42.2457 15.5994 42.6536 15.3844C43.4981 14.9392 44.7651 15.196 45.5351 15.9685ZM86.1398 18.1101C88.1872 19.1213 89.3317 20.5773 93.3714 27.3092C95.752 31.2761 97.2294 34.2008 97.749 35.9748C98.3115 37.8957 99.2645 37.7682 84.8159 37.7044L72.206 37.6488L72.1501 27.5601L72.0942 17.4717L78.5979 17.5344C84.9489 17.5959 85.1258 17.6095 86.1398 18.1101ZM31.9733 60.408C33.3643 60.7603 34.7725 61.9082 35.425 63.2219C37.1919 66.7785 34.5954 70.9557 30.6178 70.9557C26.6887 70.9557 24.084 66.7483 25.8559 63.2639C27.0418 60.9321 29.504 59.7825 31.9733 60.408ZM81.6773 60.4968C84.5216 61.348 86.0274 64.3109 85.1871 67.4025C84.864 68.5911 82.9847 70.4162 81.7371 70.7534C78.5583 71.612 75.4995 69.7565 74.8646 66.5845C74.3238 63.8831 76.1565 61.0436 78.8687 60.3813C79.8945 60.1307 80.5434 60.1575 81.6773 60.4968Z" fill="#F95C19"/>
</svg>
