<svg width="117" height="85" viewBox="0 0 117 85" fill="none" xmlns="http://www.w3.org/2000/svg">
<path fill-rule="evenodd" clip-rule="evenodd" d="M18.874 0.320266C16.611 0.775924 14.5274 2.45066 13.5719 4.58128C12.5045 6.96185 12.5485 12.122 13.6558 14.4113C15.3229 17.8577 19.7293 19.4723 23.1461 17.8886C24.9258 17.0638 25.9501 16.0705 26.7973 14.3479C27.5349 12.849 27.5353 12.8454 27.5353 9.34333C27.5353 5.53143 27.3399 4.73911 25.949 2.91422C24.4441 0.939852 21.3786 -0.184163 18.874 0.320266ZM94.8831 0.389134C94.2006 0.543353 93.3069 0.847277 92.8969 1.06472C91.7257 1.68543 90.379 3.17208 89.7272 4.56344C89.1613 5.77122 89.1297 6.02457 89.1297 9.34333C89.1297 12.8454 89.1302 12.849 89.8678 14.3479C90.715 16.0705 91.7393 17.0638 93.519 17.8886C95.2626 18.6967 97.6368 18.6938 99.4 17.8814C100.872 17.2031 102.343 15.7896 103.009 14.4113C104.114 12.1269 104.161 6.92798 103.098 4.59889C101.617 1.35622 98.2473 -0.370671 94.8831 0.389134ZM57.2044 8.34937C53.1706 9.04099 50.2743 11.4188 48.9864 15.0964C48.4907 16.5115 48.2595 21.6398 48.5868 23.9528C49.9834 33.8174 63.1545 35.8424 67.2788 26.8263C68.0588 25.1211 68.3302 22.8749 68.1915 19.2736C68.0035 14.3964 66.8082 11.9646 63.5629 9.85814C61.8175 8.7251 58.9631 8.04771 57.2044 8.34937ZM15.5039 24.5379C14.8293 25.2566 14.8764 25.7416 15.9371 28.9827C17.1816 32.7867 17.2231 32.8214 20.5287 32.8214C22.6317 32.8214 23.1704 32.7512 23.5633 32.4263C24.031 32.0393 26.0688 26.4373 26.0688 25.5386C26.0688 25.3105 25.8195 24.8745 25.5149 24.5697C24.9641 24.0183 24.9371 24.0154 20.4779 24.0154C16.0833 24.0154 15.9849 24.0258 15.5039 24.5379ZM91.7038 24.4383C91.3318 24.7397 91.189 25.08 91.2064 25.6237C91.2393 26.6676 93.0628 31.9029 93.57 32.4105C93.9208 32.7616 94.3693 32.8214 96.6488 32.8214C99.953 32.8214 99.9485 32.8253 101.202 29.0897C102.239 26.0008 102.316 25.1346 101.609 24.4758C101.147 24.0447 100.832 24.0154 96.6704 24.0154C92.6625 24.0154 92.1743 24.0569 91.7038 24.4383ZM7.06836 26.9575C4.68422 27.3594 2.33935 29.1825 1.26878 31.4662L0.68645 32.7085L0.620569 44.3935L0.554688 56.0785H8.46089C14.3469 56.0785 16.3671 56.011 16.3671 55.8143C16.3671 55.6691 16.5758 53.0237 16.831 49.9359L17.2948 44.3219L13.7436 35.5233L10.1921 26.7249L9.16189 26.7516C8.59536 26.766 7.65339 26.8588 7.06836 26.9575ZM30.1672 27.2023C30.0568 27.4987 28.6142 31.4493 26.9613 35.9815L23.9561 44.2217L24.3561 49.6422C24.5763 52.6234 24.8089 55.2909 24.873 55.5704C24.9835 56.0523 25.0973 56.0785 27.0744 56.0785H29.1593L29.2997 53.1996C29.3768 51.6163 29.604 49.711 29.8048 48.9659C30.9751 44.618 34.6751 40.7593 39.0014 39.3743L39.8634 39.0981L39.791 35.7904C39.7222 32.6426 39.6866 32.4188 39.0501 31.1618C37.7381 28.5704 35.4108 27.1212 32.0757 26.8186C30.4178 26.6683 30.3617 26.6795 30.1672 27.2023ZM83.3473 26.9496C80.8459 27.3847 78.7437 28.9323 77.6087 31.1745C76.9798 32.4166 76.9426 32.6503 76.874 35.7904L76.8016 39.0981L77.6637 39.3743C81.99 40.7593 85.6899 44.618 86.8602 48.9659C87.061 49.711 87.2882 51.6163 87.3654 53.1996L87.5057 56.0785H90.0225H92.5393L92.9953 50.1764L93.4513 44.2741L89.9341 35.5561L86.4169 26.8378L85.4043 26.8028C84.8475 26.7836 83.9217 26.8498 83.3473 26.9496ZM106.255 27.5322C106.07 27.9761 104.609 31.9318 103.008 36.3229L100.098 44.3064L100.532 49.5715C100.77 52.4673 100.968 55.1161 100.97 55.4576L100.975 56.0785H108.543H116.11L116.044 44.3935L115.979 32.7085L115.396 31.4662C114.281 29.0881 112 27.3698 109.391 26.9421C107.001 26.5504 106.637 26.619 106.255 27.5322ZM52.7313 40.1178C52.4614 40.4053 52.2408 40.9208 52.2408 41.2631C52.2408 41.6054 52.9036 43.1902 53.7141 44.785C54.9757 47.2681 55.2882 47.7197 55.8911 47.9299C56.7629 48.2343 61.0303 48.254 61.8096 47.9575C62.245 47.7918 62.7369 47.0322 63.8548 44.7995C64.6643 43.1826 65.3268 41.5713 65.3268 41.2186C65.3268 40.8402 65.1127 40.3759 64.8047 40.0862C64.2977 39.6098 64.1197 39.5953 58.7522 39.5953C53.2633 39.5953 53.2182 39.5992 52.7313 40.1178ZM40.3957 42.6183C37.7525 43.4691 35.1802 45.5478 34.079 47.7224C32.8426 50.1644 32.8374 50.2407 32.8374 65.9481V80.4645H43.1031H53.3689L53.3711 79.9565C53.3723 79.6769 53.4727 77.5179 53.5945 75.1583L53.8156 70.8682L49.9198 56.643L46.024 42.4178L43.6611 42.3729C42.2279 42.3455 40.943 42.442 40.3957 42.6183ZM70.5377 43.1284C70.4091 43.6068 68.8318 50.0154 67.0325 57.3694L63.761 70.7406L63.9748 75.3202C64.0924 77.8392 64.191 80.0272 64.1937 80.1823C64.1975 80.4038 66.3145 80.4645 74.0132 80.4645H83.8277V65.9481C83.8277 50.2407 83.8225 50.1644 82.5861 47.7224C81.7195 46.0114 79.7672 44.1971 77.7618 43.2399C76.1428 42.467 75.8919 42.4151 73.4076 42.339L70.7717 42.2582L70.5377 43.1284ZM96.7077 48.1756C96.6847 48.4861 96.439 51.521 96.1619 54.9199L95.6581 61.1L96.1822 61.4436C96.5958 61.7148 96.8236 61.734 97.2613 61.5344C97.9493 61.2208 97.9475 61.3524 97.3608 54.1245C96.8733 48.1185 96.7769 47.2413 96.7077 48.1756ZM20.0059 54.525C19.5113 60.8622 19.5077 61.0964 19.9046 61.3974C20.4533 61.8137 20.7407 61.7993 21.2919 61.3283L21.7542 60.9331L21.2274 54.5401C20.9379 51.024 20.6597 48.1061 20.6092 48.0557C20.5589 48.0054 20.2875 50.9166 20.0059 54.525ZM58.106 53.7641C58.1056 54.1055 57.8005 60.8816 57.428 68.822C57.0557 76.7624 56.8344 83.3161 56.9364 83.3859C57.0381 83.4557 57.4961 83.7501 57.9544 84.0405L58.7874 84.5679L59.8036 83.9276L60.8195 83.287L60.6995 81.3677C60.6334 80.3121 60.4265 75.7397 60.2395 71.2069C60.0527 66.674 59.8015 61.0855 59.6813 58.788C59.5613 56.4906 59.4624 54.2807 59.4618 53.877C59.4606 53.2125 59.3968 53.1431 58.7838 53.1431C58.196 53.1431 58.1067 53.2249 58.106 53.7641Z" fill="#F95C19"/>
</svg>
