<svg width="80" height="81" viewBox="0 0 80 81" fill="none" xmlns="http://www.w3.org/2000/svg">
<path fill-rule="evenodd" clip-rule="evenodd" d="M23.0877 0.510499C22.7306 0.699105 22.3813 1.0585 22.1892 1.43494C21.8769 2.04717 21.875 2.28796 21.875 41.1223V80.1938H25.0781H28.2812V72.3745C28.2812 65.0054 28.2983 64.5217 28.5777 63.9742C28.7516 63.6333 29.1316 63.2485 29.4973 63.0429L30.1206 62.6926H39.9884C49.5698 62.6926 49.8741 62.7016 50.4728 63.0071C50.8698 63.2096 51.2017 63.5415 51.4042 63.9386C51.707 64.5322 51.7187 64.8461 51.7187 72.3745V80.1938H54.9219H58.125V41.1223C58.125 2.27234 58.1233 2.04748 57.8105 1.43431C57.608 1.03725 57.2761 0.705356 56.8791 0.502842C56.2725 0.193446 55.9975 0.188445 39.9672 0.195165C24.0517 0.201884 23.6583 0.209228 23.0877 0.510499ZM31.7228 6.75327C32.8189 7.31253 32.9687 7.83866 32.9687 11.1265C32.9687 14.4144 32.8189 14.9405 31.7228 15.4998C30.9223 15.9081 30.2689 15.8976 29.4973 15.464C28.4073 14.8513 28.2803 14.3921 28.2878 11.0937C28.2953 7.83553 28.3997 7.45629 29.4677 6.80983C30.2158 6.35699 30.9117 6.33949 31.7228 6.75327ZM41.0978 6.75327C42.1939 7.31253 42.3437 7.83866 42.3437 11.1265C42.3437 14.4144 42.1939 14.9405 41.0978 15.4998C40.2973 15.9081 39.6439 15.8976 38.8723 15.464C37.7823 14.8513 37.6553 14.3921 37.6628 11.0937C37.6703 7.83553 37.7747 7.45629 38.8427 6.80983C39.5908 6.35699 40.2867 6.33949 41.0978 6.75327ZM50.4728 6.75327C51.5689 7.31253 51.7187 7.83866 51.7187 11.1265C51.7187 14.4144 51.5689 14.9405 50.4728 15.4998C49.6723 15.9081 49.0189 15.8976 48.2473 15.464C47.1573 14.8513 47.0303 14.3921 47.0378 11.0937C47.0453 7.83553 47.1497 7.45629 48.2177 6.80983C48.9658 6.35699 49.6617 6.33949 50.4728 6.75327ZM31.7228 20.8167C32.8189 21.376 32.9687 21.9021 32.9687 25.19C32.9687 28.4779 32.8189 29.004 31.7228 29.5633C30.9223 29.9716 30.2689 29.9611 29.4973 29.5275C28.4073 28.9148 28.2803 28.4555 28.2878 25.1572C28.2953 21.899 28.3997 21.5197 29.4677 20.8733C30.2158 20.4205 30.9117 20.403 31.7228 20.8167ZM41.0978 20.8167C42.1939 21.376 42.3437 21.9021 42.3437 25.19C42.3437 28.4779 42.1939 29.004 41.0978 29.5633C40.2973 29.9716 39.6439 29.9611 38.8723 29.5275C37.7823 28.9148 37.6553 28.4555 37.6628 25.1572C37.6703 21.899 37.7747 21.5197 38.8427 20.8733C39.5908 20.4205 40.2867 20.403 41.0978 20.8167ZM50.4728 20.8167C51.5689 21.376 51.7187 21.9021 51.7187 25.19C51.7187 28.4779 51.5689 29.004 50.4728 29.5633C49.6723 29.9716 49.0189 29.9611 48.2473 29.5275C47.1573 28.9148 47.0303 28.4555 47.0378 25.1572C47.0453 21.899 47.1497 21.5197 48.2177 20.8733C48.9658 20.4205 49.6617 20.403 50.4728 20.8167ZM1.21266 31.7626C0.855625 31.9512 0.50625 32.3106 0.314219 32.6871C0.00375 33.2959 0 33.5704 0 55.8171C0 78.0728 0.00359373 78.3382 0.314531 78.9477C0.517031 79.3448 0.848906 79.6767 1.24594 79.8792C1.83906 80.1817 2.15391 80.1938 9.525 80.1938H17.1875V55.8171V31.4404L9.49219 31.4473C2.13937 31.4539 1.77094 31.4679 1.21266 31.7626ZM62.8125 55.8171V80.1938H70.475C77.8461 80.1938 78.1609 80.1817 78.7541 79.8792C79.1511 79.6767 79.483 79.3448 79.6855 78.9477C79.9964 78.3382 80 78.0728 80 55.8171C80 33.5614 79.9964 33.296 79.6855 32.6864C79.483 32.2894 79.1511 31.9575 78.7541 31.755C78.1609 31.4525 77.8461 31.4404 70.475 31.4404H62.8125V55.8171ZM31.7228 34.8802C32.8189 35.4394 32.9687 35.9656 32.9687 39.2535C32.9687 42.5413 32.8189 43.0675 31.7228 43.6267C30.9223 44.035 30.2689 44.0246 29.4973 43.5909C28.4073 42.9782 28.2803 42.519 28.2878 39.2206C28.2953 35.9625 28.3997 35.5832 29.4677 34.9368C30.2158 34.4839 30.9117 34.4664 31.7228 34.8802ZM41.0978 34.8802C42.1939 35.4394 42.3437 35.9656 42.3437 39.2535C42.3437 42.5413 42.1939 43.0675 41.0978 43.6267C40.2973 44.035 39.6439 44.0246 38.8723 43.5909C37.7823 42.9782 37.6553 42.519 37.6628 39.2206C37.6703 35.9625 37.7747 35.5832 38.8427 34.9368C39.5908 34.4839 40.2867 34.4664 41.0978 34.8802ZM50.4728 34.8802C51.5689 35.4394 51.7187 35.9656 51.7187 39.2535C51.7187 42.5413 51.5689 43.0675 50.4728 43.6267C49.6723 44.035 49.0189 44.0246 48.2473 43.5909C47.1573 42.9782 47.0303 42.519 47.0378 39.2206C47.0453 35.9625 47.1497 35.5832 48.2177 34.9368C48.9658 34.4839 49.6617 34.4664 50.4728 34.8802ZM9.69156 41.1306C10.7877 41.6899 10.9375 42.216 10.9375 45.5039C10.9375 48.7918 10.7877 49.3179 9.69156 49.8772C8.89109 50.2855 8.23766 50.275 7.46609 49.8414C6.37609 49.2287 6.24906 48.7694 6.25656 45.4711C6.26406 42.2129 6.36844 41.8336 7.43641 41.1872C8.18453 40.7343 8.88047 40.7168 9.69156 41.1306ZM72.5041 41.1306C73.6002 41.6899 73.75 42.216 73.75 45.5039C73.75 48.7918 73.6002 49.3179 72.5041 49.8772C71.7036 50.2855 71.0502 50.275 70.2786 49.8414C69.1886 49.2287 69.0616 48.7694 69.0691 45.4711C69.0766 42.2129 69.1809 41.8336 70.2489 41.1872C70.997 40.7343 71.693 40.7168 72.5041 41.1306ZM31.7228 48.9437C32.8189 49.5029 32.9687 50.029 32.9687 53.3169C32.9687 56.6048 32.8189 57.1309 31.7228 57.6902C30.9223 58.0985 30.2689 58.088 29.4973 57.6544C28.4073 57.0417 28.2803 56.5825 28.2878 53.2841C28.2953 50.0259 28.3997 49.6467 29.4677 49.0002C30.2158 48.5474 30.9117 48.5299 31.7228 48.9437ZM41.0978 48.9437C42.1939 49.5029 42.3437 50.029 42.3437 53.3169C42.3437 56.6048 42.1939 57.1309 41.0978 57.6902C40.2973 58.0985 39.6439 58.088 38.8723 57.6544C37.7823 57.0417 37.6553 56.5825 37.6628 53.2841C37.6703 50.0259 37.7747 49.6467 38.8427 49.0002C39.5908 48.5474 40.2867 48.5299 41.0978 48.9437ZM50.4728 48.9437C51.5689 49.5029 51.7187 50.029 51.7187 53.3169C51.7187 56.6048 51.5689 57.1309 50.4728 57.6902C49.6723 58.0985 49.0189 58.088 48.2473 57.6544C47.1573 57.0417 47.0303 56.5825 47.0378 53.2841C47.0453 50.0259 47.1497 49.6467 48.2177 49.0002C48.9658 48.5474 49.6617 48.5299 50.4728 48.9437ZM9.69156 55.1941C10.7877 55.7533 10.9375 56.2795 10.9375 59.5674C10.9375 62.8552 10.7877 63.3814 9.69156 63.9406C8.89109 64.3489 8.23766 64.3385 7.46609 63.9048C6.37609 63.2921 6.24906 62.8329 6.25656 59.5345C6.26406 56.2763 6.36844 55.8971 7.43641 55.2506C8.18453 54.7978 8.88047 54.7803 9.69156 55.1941ZM72.5041 55.1941C73.6002 55.7533 73.75 56.2795 73.75 59.5674C73.75 62.8552 73.6002 63.3814 72.5041 63.9406C71.7036 64.3489 71.0502 64.3385 70.2786 63.9048C69.1886 63.2921 69.0616 62.8329 69.0691 59.5345C69.0766 56.2763 69.1809 55.8971 70.2489 55.2506C70.997 54.7978 71.693 54.7803 72.5041 55.1941ZM32.9687 73.7871V80.1938H35.3125H37.6562V73.7871V67.3804H35.3125H32.9687V73.7871ZM42.3437 73.7871V80.1938H44.6875H47.0313V73.7871V67.3804H44.6875H42.3437V73.7871Z" fill="#F95C19"/>
</svg>
