<svg width="80" height="81" viewBox="0 0 80 81" fill="none" xmlns="http://www.w3.org/2000/svg">
<path fill-rule="evenodd" clip-rule="evenodd" d="M21.2134 8.98873C11.2597 13.9137 3.17018 17.9956 3.23678 18.0596C3.30337 18.1236 6.52681 19.7347 10.4001 21.64L17.4424 25.104L35.5283 15.8376C45.4754 10.7412 53.6124 6.53081 53.6104 6.48138C53.6084 6.43211 50.7419 4.98885 47.2404 3.27438C42.1033 0.759046 40.7233 0.145268 40.0926 0.0956843C39.3294 0.0357769 38.8828 0.246157 21.2134 8.98873ZM42.3376 19.1821C27.4785 26.7934 24.3068 28.4727 24.5173 28.6176C24.6582 28.7145 28.2069 30.4858 32.4034 32.5538L40.0335 36.3137L50.9272 30.9138C56.9187 27.9437 65.2325 23.8247 69.4023 21.7604L76.9837 18.0072L68.797 13.959C64.2944 11.7326 60.5662 9.91362 60.5122 9.91691C60.4582 9.92019 52.2796 14.0895 42.3376 19.1821ZM0.000359616 41.4512C0.0036423 58.7354 0.0170857 59.6021 0.292362 60.1988C0.451026 60.5429 0.7485 60.9762 0.953277 61.1618C1.15805 61.3474 9.30959 65.666 19.0678 70.7589C28.8259 75.8517 36.8627 80.0505 36.9271 80.0895C36.9915 80.1284 37.0444 71.4758 37.0444 60.8614V41.5626L29.1361 37.6634C24.7865 35.519 21.1638 33.741 21.0857 33.7124C21.0022 33.6817 20.9436 35.8703 20.9436 39.0202C20.9436 44.1625 20.9301 44.4079 20.612 45.0655C19.8134 46.7163 17.5129 47.1967 16.1481 45.9976C15.0015 44.9903 15.0113 45.0636 15.0029 37.4402L14.9954 30.6361L7.7697 27.0864C3.79561 25.134 0.420856 23.4901 0.270478 23.433C0.0109893 23.3346 -0.00292307 24.2562 0.000359616 41.4512ZM61.5082 32.4316L43.219 41.477L43.1233 48.4917C43.0708 52.3497 43.0179 61.014 43.0061 67.7459C42.989 77.4506 43.025 79.9829 43.1799 79.9734C43.2874 79.9667 51.6054 75.6543 61.6645 70.3902L79.9538 60.8191L79.9935 42.0909C80.0154 31.7905 79.9802 23.3681 79.9153 23.3745C79.8505 23.3809 71.5673 27.4565 61.5082 32.4316Z" fill="#F95C19"/>
</svg>
